<svg xmlns="http://www.w3.org/2000/svg" width="74" height="116" viewBox="0 0 74 116">
    <defs>
        <linearGradient id="prefix__b" x1="97.269%" x2="9.814%" y1="50%" y2="50%">
            <stop offset="0%" stop-color="#E5E5E5"/>
            <stop offset="24.037%" stop-color="#40C4FF"/>
            <stop offset="48.158%" stop-color="#E9FBFF"/>
            <stop offset="63.756%" stop-color="#64F3FF"/>
            <stop offset="91.066%" stop-color="#0277BD"/>
            <stop offset="100%" stop-color="#19BFCF"/>
        </linearGradient>
        <linearGradient id="prefix__c" x1="97.269%" x2="-13.883%" y1="50%" y2="50%">
            <stop offset="0%" stop-color="#44C0CB"/>
            <stop offset="9.256%" stop-color="#40C4FF"/>
            <stop offset="32.91%" stop-color="#E9FBFF"/>
            <stop offset="56.334%" stop-color="#64F3FF"/>
            <stop offset="86.579%" stop-color="#219ED2"/>
            <stop offset="100%" stop-color="#47BAFF"/>
        </linearGradient>
        <linearGradient id="prefix__d" x1="50%" x2="50%" y1="83.875%" y2="17.489%">
            <stop offset="0%" stop-color="#00AAC7"/>
            <stop offset="36.053%" stop-color="#FFF"/>
            <stop offset="47.379%" stop-color="#2ADBE3"/>
            <stop offset="64.498%" stop-color="#0277BD"/>
            <stop offset="100%" stop-color="#40C4FF"/>
        </linearGradient>
        <linearGradient id="prefix__e" x1="50%" x2="50%" y1="83.875%" y2="17.489%">
            <stop offset="0%" stop-color="#00AAC7"/>
            <stop offset="36.053%" stop-color="#FFF"/>
            <stop offset="47.379%" stop-color="#2ADBE3"/>
            <stop offset="64.498%" stop-color="#0277BD"/>
            <stop offset="100%" stop-color="#40C4FF"/>
        </linearGradient>
        <linearGradient id="prefix__f" x1="50%" x2="50%" y1="83.875%" y2="17.489%">
            <stop offset="0%" stop-color="#00AAC7"/>
            <stop offset="36.053%" stop-color="#FFF"/>
            <stop offset="47.379%" stop-color="#2ADBE3"/>
            <stop offset="64.498%" stop-color="#0277BD"/>
            <stop offset="100%" stop-color="#40C4FF"/>
        </linearGradient>
        <linearGradient id="prefix__g" x1="50%" x2="50%" y1="83.875%" y2="17.489%">
            <stop offset="0%" stop-color="#00AAC7"/>
            <stop offset="36.053%" stop-color="#FFF"/>
            <stop offset="47.379%" stop-color="#2ADBE3"/>
            <stop offset="64.498%" stop-color="#0277BD"/>
            <stop offset="100%" stop-color="#40C4FF"/>
        </linearGradient>
        <linearGradient id="prefix__h" x1="50%" x2="50%" y1="83.875%" y2="17.489%">
            <stop offset="0%" stop-color="#00AAC7"/>
            <stop offset="36.053%" stop-color="#FFF"/>
            <stop offset="47.379%" stop-color="#2ADBE3"/>
            <stop offset="64.498%" stop-color="#0277BD"/>
            <stop offset="100%" stop-color="#40C4FF"/>
        </linearGradient>
        <linearGradient id="prefix__i" x1="50%" x2="50%" y1="83.875%" y2="17.489%">
            <stop offset="0%" stop-color="#00AAC7"/>
            <stop offset="36.053%" stop-color="#FFF"/>
            <stop offset="47.379%" stop-color="#2ADBE3"/>
            <stop offset="64.498%" stop-color="#0277BD"/>
            <stop offset="100%" stop-color="#40C4FF"/>
        </linearGradient>
        <linearGradient id="prefix__j" x1="50%" x2="50%" y1="100%" y2="0%">
            <stop offset="0%" stop-color="#0277BD"/>
            <stop offset="90.68%" stop-color="#FFF"/>
            <stop offset="84.267%" stop-color="#40ECFF"/>
        </linearGradient>
        <linearGradient id="prefix__k" x1="109.878%" x2="11.195%" y1="50%" y2="50%">
            <stop offset="0%" stop-color="#0277BD"/>
            <stop offset="34.141%" stop-color="#40C4FF"/>
            <stop offset="42.929%" stop-color="#40FEFF"/>
            <stop offset="56.266%" stop-color="#DDFEFF"/>
            <stop offset="68.11%" stop-color="#40F3FF"/>
            <stop offset="89.902%" stop-color="#0277BD"/>
            <stop offset="100%" stop-color="#23D1CE"/>
        </linearGradient>
        <filter id="prefix__a" width="143.2%" height="127.6%" x="-21.6%" y="-13.8%" filterUnits="objectBoundingBox">
            <feOffset dy="4" in="SourceAlpha" result="shadowOffsetOuter1"/>
            <feGaussianBlur in="shadowOffsetOuter1" result="shadowBlurOuter1" stdDeviation="2"/>
            <feColorMatrix in="shadowBlurOuter1" result="shadowMatrixOuter1" values="0 0 0 0 0 0 0 0 0 0 0 0 0 0 0 0 0 0 0.5 0"/>
            <feMerge>
                <feMergeNode in="shadowMatrixOuter1"/>
                <feMergeNode in="SourceGraphic"/>
            </feMerge>
        </filter>
    </defs>
    <g fill="none" fill-rule="evenodd" filter="url(#prefix__a)">
        <path fill="url(#prefix__b)" fill-rule="nonzero" d="M30 4l1.89 80.322C33.518 95.554 34.144 100 34.144 100h5.716l2.009-15.678L44 4H30z"/>
        <path fill="url(#prefix__c)" fill-rule="nonzero" d="M35 100l.499 1.653.644.347h1.773l.522-.347L39 100h-4z"/>
        <path fill="url(#prefix__d)" fill-rule="nonzero" d="M31.303 61H30.8l-.8-1.147c.202-1.738.96-2.924 2.272-3.555 1.969-.948 7.415-2.563 7.633-2.563.217 0 2.71-1.193 2.71-1.99V50L44 52.302c-.121.607-.42 1.208-.895 1.803-.714.891-2.53 2.049-4.82 2.744-1.526.463-3.246.926-5.16 1.388-1.215.642-1.822 1.181-1.822 1.616V61z"/>
        <path fill="url(#prefix__d)" fill-rule="nonzero" d="M31.303 54H30.8l-.8-1.147c.202-1.738.96-2.924 2.272-3.555 1.969-.948 7.415-2.563 7.633-2.563.217 0 2.71-1.193 2.71-1.99V43L44 45.302c-.121.607-.42 1.208-.895 1.803-.714.891-2.53 2.049-4.82 2.744-1.526.463-3.246.926-5.16 1.388-1.215.642-1.822 1.181-1.822 1.616V54z"/>
        <path fill="url(#prefix__e)" fill-rule="nonzero" d="M31.303 46H30.8l-.8-1.25c.202-1.898.96-3.19 2.272-3.88 1.969-1.034 7.415-2.795 7.633-2.795.217 0 2.71-1.301 2.71-2.172V34L44 36.511c-.121.663-.42 1.318-.895 1.967-.714.972-2.53 2.235-4.82 2.994-1.526.505-3.246 1.01-5.16 1.514-1.215.7-1.822 1.288-1.822 1.763V46z"/>
        <path fill="url(#prefix__e)" fill-rule="nonzero" d="M31.303 38H30.8l-.8-1.25c.202-1.898.96-3.19 2.272-3.88 1.969-1.034 7.415-2.795 7.633-2.795.217 0 2.71-1.301 2.71-2.172V26L44 28.511c-.121.663-.42 1.318-.895 1.967-.714.972-2.53 2.235-4.82 2.994-1.526.505-3.246 1.01-5.16 1.514-1.215.7-1.822 1.288-1.822 1.763V38z"/>
        <path fill="url(#prefix__f)" fill-rule="nonzero" d="M32.117 68h-.431L31 66.853c.173-1.738.822-2.924 1.947-3.555 1.688-.948 6.356-2.563 6.543-2.563.186 0 2.324-1.193 2.324-1.99V57L43 59.302c-.104.607-.36 1.208-.767 1.803-.612.891-2.169 2.049-4.131 2.744-1.309.463-2.783.926-4.423 1.388-1.042.642-1.562 1.181-1.562 1.616V68z"/>
        <path fill="url(#prefix__f)" fill-rule="nonzero" d="M32.117 76h-.431L31 74.853c.173-1.738.822-2.924 1.947-3.555 1.688-.948 6.356-2.563 6.543-2.563.186 0 2.324-1.193 2.324-1.99V65L43 67.302c-.104.607-.36 1.208-.767 1.803-.612.891-2.169 2.049-4.131 2.744-1.309.463-2.783.926-4.423 1.388-1.042.642-1.562 1.181-1.562 1.616V76z"/>
        <path fill="url(#prefix__g)" fill-rule="nonzero" d="M32.117 85h-.431L31 83.75c.173-1.898.822-3.19 1.947-3.88 1.688-1.034 6.356-2.795 6.543-2.795.186 0 2.324-1.301 2.324-2.172V73L43 75.511c-.104.663-.36 1.318-.767 1.967-.612.972-2.169 2.235-4.131 2.994-1.309.505-2.783 1.01-4.423 1.514-1.042.7-1.562 1.288-1.562 1.763V85z"/>
        <path fill="url(#prefix__h)" fill-rule="nonzero" d="M33.024 93h-.395L32 91.75c.159-1.898.754-3.19 1.785-3.88 1.547-1.034 5.826-2.795 5.997-2.795.171 0 2.13-1.301 2.13-2.172V81L43 83.511c-.095.663-.33 1.318-.703 1.967-.561.972-1.988 2.235-3.787 2.994-1.2.505-2.551 1.01-4.054 1.514-.955.7-1.432 1.288-1.432 1.763V93z"/>
        <path fill="url(#prefix__i)" fill-rule="nonzero" d="M34.651 100h-.25L34 98.958c.1-1.581.48-2.659 1.136-3.233.984-.861 3.707-2.33 3.816-2.33.11 0 1.356-1.084 1.356-1.81V90L41 92.093c-.06.552-.21 1.098-.448 1.638-.356.81-1.264 1.863-2.41 2.495-.763.422-1.623.842-2.58 1.262-.607.584-.91 1.074-.91 1.47V100z"/>
        <path fill="url(#prefix__j)" fill-rule="nonzero" d="M29.527 0L27 6 47 6 44.218 0z"/>
        <path fill="url(#prefix__k)" fill-rule="nonzero" d="M47 6c-.928 1.144-1.616 4.48-2.066 10.009-.45 5.529-.45 10.526 0 14.991-2.79-2.478-5.435-3.81-7.934-3.993-2.499-.183-5.03 1.148-7.595 3.993.37-6.32.37-11.317 0-14.991C29.035 12.335 28.233 8.999 27 6h20z"/>
        <path d="M0 0H74V115H0z"/>
    </g>
</svg>
