<svg xmlns="http://www.w3.org/2000/svg" width="74" height="116" viewBox="0 0 74 116">
    <defs>
        <linearGradient id="prefix__b" x1="97.269%" x2="9.814%" y1="50%" y2="50%">
            <stop offset="0%" stop-color="#E5E5E5"/>
            <stop offset="24.037%" stop-color="#40C4FF"/>
            <stop offset="48.158%" stop-color="#E9FBFF"/>
            <stop offset="63.756%" stop-color="#64F3FF"/>
            <stop offset="91.066%" stop-color="#0277BD"/>
            <stop offset="100%" stop-color="#19BFCF"/>
        </linearGradient>
        <linearGradient id="prefix__c" x1="97.269%" x2="-13.883%" y1="50%" y2="50%">
            <stop offset="0%" stop-color="#44C0CB"/>
            <stop offset="9.256%" stop-color="#40C4FF"/>
            <stop offset="32.91%" stop-color="#E9FBFF"/>
            <stop offset="56.334%" stop-color="#64F3FF"/>
            <stop offset="86.579%" stop-color="#219ED2"/>
            <stop offset="100%" stop-color="#47BAFF"/>
        </linearGradient>
        <linearGradient id="prefix__d" x1="50%" x2="50%" y1="83.875%" y2="17.489%">
            <stop offset="0%" stop-color="#00AAC7"/>
            <stop offset="36.053%" stop-color="#FFF"/>
            <stop offset="47.379%" stop-color="#2ADBE3"/>
            <stop offset="64.498%" stop-color="#0277BD"/>
            <stop offset="100%" stop-color="#40C4FF"/>
        </linearGradient>
        <linearGradient id="prefix__e" x1="50%" x2="50%" y1="83.875%" y2="17.489%">
            <stop offset="0%" stop-color="#00AAC7"/>
            <stop offset="36.053%" stop-color="#FFF"/>
            <stop offset="47.379%" stop-color="#2ADBE3"/>
            <stop offset="64.498%" stop-color="#0277BD"/>
            <stop offset="100%" stop-color="#40C4FF"/>
        </linearGradient>
        <linearGradient id="prefix__f" x1="50%" x2="50%" y1="83.875%" y2="17.489%">
            <stop offset="0%" stop-color="#00AAC7"/>
            <stop offset="36.053%" stop-color="#FFF"/>
            <stop offset="47.379%" stop-color="#2ADBE3"/>
            <stop offset="64.498%" stop-color="#0277BD"/>
            <stop offset="100%" stop-color="#40C4FF"/>
        </linearGradient>
        <linearGradient id="prefix__g" x1="50%" x2="50%" y1="83.875%" y2="17.489%">
            <stop offset="0%" stop-color="#00AAC7"/>
            <stop offset="36.053%" stop-color="#FFF"/>
            <stop offset="47.379%" stop-color="#2ADBE3"/>
            <stop offset="64.498%" stop-color="#0277BD"/>
            <stop offset="100%" stop-color="#40C4FF"/>
        </linearGradient>
        <linearGradient id="prefix__h" x1="50%" x2="50%" y1="83.875%" y2="17.489%">
            <stop offset="0%" stop-color="#00AAC7"/>
            <stop offset="36.053%" stop-color="#FFF"/>
            <stop offset="47.379%" stop-color="#2ADBE3"/>
            <stop offset="64.498%" stop-color="#0277BD"/>
            <stop offset="100%" stop-color="#40C4FF"/>
        </linearGradient>
        <linearGradient id="prefix__i" x1="50%" x2="50%" y1="83.875%" y2="17.489%">
            <stop offset="0%" stop-color="#00AAC7"/>
            <stop offset="36.053%" stop-color="#FFF"/>
            <stop offset="47.379%" stop-color="#2ADBE3"/>
            <stop offset="64.498%" stop-color="#0277BD"/>
            <stop offset="100%" stop-color="#40C4FF"/>
        </linearGradient>
        <linearGradient id="prefix__j" x1="50%" x2="50%" y1="83.875%" y2="17.489%">
            <stop offset="0%" stop-color="#00AAC7"/>
            <stop offset="36.053%" stop-color="#FFF"/>
            <stop offset="47.379%" stop-color="#2ADBE3"/>
            <stop offset="64.498%" stop-color="#0277BD"/>
            <stop offset="100%" stop-color="#40C4FF"/>
        </linearGradient>
        <linearGradient id="prefix__k" x1="50%" x2="50%" y1="83.875%" y2="17.489%">
            <stop offset="0%" stop-color="#00AAC7"/>
            <stop offset="36.053%" stop-color="#FFF"/>
            <stop offset="47.379%" stop-color="#2ADBE3"/>
            <stop offset="64.498%" stop-color="#0277BD"/>
            <stop offset="100%" stop-color="#40C4FF"/>
        </linearGradient>
        <linearGradient id="prefix__l" x1="50%" x2="50%" y1="83.875%" y2="17.489%">
            <stop offset="0%" stop-color="#00AAC7"/>
            <stop offset="36.053%" stop-color="#FFF"/>
            <stop offset="47.379%" stop-color="#2ADBE3"/>
            <stop offset="64.498%" stop-color="#0277BD"/>
            <stop offset="100%" stop-color="#40C4FF"/>
        </linearGradient>
        <linearGradient id="prefix__m" x1="50%" x2="50%" y1="100%" y2="0%">
            <stop offset="0%" stop-color="#0277BD"/>
            <stop offset="90.68%" stop-color="#FFF"/>
            <stop offset="84.267%" stop-color="#40ECFF"/>
        </linearGradient>
        <linearGradient id="prefix__n" x1="109.878%" x2="11.195%" y1="50%" y2="50%">
            <stop offset="0%" stop-color="#0277BD"/>
            <stop offset="34.141%" stop-color="#40C4FF"/>
            <stop offset="42.929%" stop-color="#40FEFF"/>
            <stop offset="56.266%" stop-color="#DDFEFF"/>
            <stop offset="68.11%" stop-color="#40F3FF"/>
            <stop offset="89.902%" stop-color="#0277BD"/>
            <stop offset="100%" stop-color="#23D1CE"/>
        </linearGradient>
        <filter id="prefix__a" width="143.2%" height="127.6%" x="-21.6%" y="-13.8%" filterUnits="objectBoundingBox">
            <feOffset dy="4" in="SourceAlpha" result="shadowOffsetOuter1"/>
            <feGaussianBlur in="shadowOffsetOuter1" result="shadowBlurOuter1" stdDeviation="2"/>
            <feColorMatrix in="shadowBlurOuter1" result="shadowMatrixOuter1" values="0 0 0 0 0 0 0 0 0 0 0 0 0 0 0 0 0 0 0.5 0"/>
            <feMerge>
                <feMergeNode in="shadowMatrixOuter1"/>
                <feMergeNode in="SourceGraphic"/>
            </feMerge>
        </filter>
    </defs>
    <g fill="none" fill-rule="evenodd" filter="url(#prefix__a)">
        <path fill="url(#prefix__b)" fill-rule="nonzero" d="M24 4l3.51 68.608C30.533 82.203 31.696 86 31.696 86h10.615l3.731-13.392L50 4H24z"/>
        <path fill="url(#prefix__c)" fill-rule="nonzero" d="M32 86l1.246 1.653 1.611.347h4.433l1.304-.347L42 86H32z"/>
        <path fill="url(#prefix__d)" fill-rule="nonzero" d="M27.326 53h-.897L25 51.958c.36-1.581 1.713-2.659 4.057-3.233 3.516-.861 13.241-2.33 13.63-2.33.389 0 4.841-1.084 4.841-1.81V43L50 45.093c-.216.552-.75 1.098-1.599 1.638-1.274.81-4.517 1.863-8.606 2.495-2.726.422-5.798.842-9.214 1.262-2.17.584-3.255 1.074-3.255 1.47V53z"/>
        <path fill="url(#prefix__e)" fill-rule="nonzero" d="M26.42 47h-.934L24 45.958c.375-1.581 1.781-2.659 4.219-3.233 3.657-.861 13.771-2.33 14.176-2.33.404 0 5.034-1.084 5.034-1.81V37L50 39.093c-.225.552-.78 1.098-1.663 1.638-1.325.81-4.697 1.863-8.95 2.495-2.835.422-6.03.842-9.583 1.262-2.256.584-3.384 1.074-3.384 1.47V47z"/>
        <path fill="url(#prefix__f)" fill-rule="nonzero" d="M26.513 40h-.97L24 38.958c.39-1.581 1.85-2.659 4.381-3.233 3.798-.861 14.301-2.33 14.721-2.33.42 0 5.228-1.084 5.228-1.81V30L51 32.093c-.234.552-.81 1.098-1.727 1.638-1.376.81-4.878 1.863-9.294 2.495-2.945.422-6.262.842-9.952 1.262-2.343.584-3.514 1.074-3.514 1.47V40z"/>
        <path fill="url(#prefix__g)" fill-rule="nonzero" d="M25.606 33H24.6L23 31.958c.404-1.581 1.918-2.659 4.544-3.233 3.938-.861 14.83-2.33 15.265-2.33.436 0 5.423-1.084 5.423-1.81V23L51 25.093c-.242.552-.84 1.098-1.79 1.638-1.428.81-5.06 1.863-9.64 2.495-3.053.422-6.493.842-10.32 1.262-2.43.584-3.644 1.074-3.644 1.47V33z"/>
        <path fill="url(#prefix__h)" fill-rule="nonzero" d="M27.233 59h-.861L25 57.958c.346-1.581 1.644-2.659 3.894-3.233 3.376-.861 12.712-2.33 13.086-2.33.373 0 4.647-1.084 4.647-1.81V49L49 51.093c-.208.552-.72 1.098-1.535 1.638-1.223.81-4.336 1.863-8.262 2.495-2.617.422-5.565.842-8.845 1.262-2.083.584-3.125 1.074-3.125 1.47V59z"/>
        <path fill="url(#prefix__i)" fill-rule="nonzero" d="M28.14 66h-.825L26 64.958c.332-1.581 1.576-2.659 3.732-3.233 3.235-.861 12.182-2.33 12.54-2.33.358 0 4.454-1.084 4.454-1.81V56L49 58.093c-.2.552-.69 1.098-1.47 1.638-1.173.81-4.156 1.863-7.919 2.495-2.508.422-5.333.842-8.477 1.262-1.996.584-2.994 1.074-2.994 1.47V66z"/>
        <path fill="url(#prefix__j)" fill-rule="nonzero" d="M28.047 73h-.79L26 71.958c.317-1.581 1.507-2.659 3.57-3.233 3.094-.861 11.652-2.33 11.995-2.33.342 0 4.26-1.084 4.26-1.81V63L48 65.093c-.19.552-.66 1.098-1.407 1.638-1.121.81-3.975 1.863-7.573 2.495-2.4.422-5.102.842-8.109 1.262-1.91.584-2.864 1.074-2.864 1.47V73z"/>
        <path fill="url(#prefix__k)" fill-rule="nonzero" d="M29.861 80h-.718L28 78.958c.288-1.581 1.37-2.659 3.245-3.233 2.813-.861 10.594-2.33 10.905-2.33.31 0 3.873-1.084 3.873-1.81V70L48 72.093c-.173.552-.6 1.098-1.279 1.638-1.02.81-3.614 1.863-6.885 2.495-2.18.422-4.638.842-7.371 1.262-1.736.584-2.604 1.074-2.604 1.47V80z"/>
        <path fill="url(#prefix__l)" fill-rule="nonzero" d="M32.303 86H31.8l-.8-.834c.202-1.264.96-2.126 2.272-2.586 1.969-.69 7.415-1.864 7.633-1.864.217 0 2.71-.867 2.71-1.447V78L45 79.674c-.121.442-.42.879-.895 1.311-.714.649-2.53 1.49-4.82 1.996-1.526.337-3.246.674-5.16 1.01-1.215.467-1.822.859-1.822 1.175V86z"/>
        <path fill="url(#prefix__m)" fill-rule="nonzero" d="M22.802 0L18 6 56 6 50.714 0z"/>
        <path fill="url(#prefix__n)" fill-rule="nonzero" d="M56 6c-1.762.96-3.07 3.763-3.925 8.407-.855 4.645-.855 8.842 0 12.593-5.302-2.082-10.327-3.2-15.075-3.354-4.748-.154-9.558.964-14.43 3.354.703-5.309.703-9.506 0-12.593C21.865 11.321 20.341 8.52 18 6h38z"/>
        <path d="M0 0H74V115H0z"/>
    </g>
</svg>
