<svg xmlns="http://www.w3.org/2000/svg" width="74" height="116" viewBox="0 0 74 116">
    <defs>
        <linearGradient id="prefix__b" x1="97.269%" x2="9.814%" y1="50%" y2="50%">
            <stop offset="0%" stop-color="#E5E5E5"/>
            <stop offset="24.037%" stop-color="#40C4FF"/>
            <stop offset="48.158%" stop-color="#E9FBFF"/>
            <stop offset="63.756%" stop-color="#64F3FF"/>
            <stop offset="91.066%" stop-color="#0277BD"/>
            <stop offset="100%" stop-color="#19BFCF"/>
        </linearGradient>
        <linearGradient id="prefix__c" x1="97.269%" x2="-13.883%" y1="50%" y2="50%">
            <stop offset="0%" stop-color="#44C0CB"/>
            <stop offset="9.256%" stop-color="#40C4FF"/>
            <stop offset="32.91%" stop-color="#E9FBFF"/>
            <stop offset="56.334%" stop-color="#64F3FF"/>
            <stop offset="86.579%" stop-color="#219ED2"/>
            <stop offset="100%" stop-color="#47BAFF"/>
        </linearGradient>
        <linearGradient id="prefix__d" x1="50%" x2="50%" y1="83.875%" y2="17.489%">
            <stop offset="0%" stop-color="#00AAC7"/>
            <stop offset="36.053%" stop-color="#FFF"/>
            <stop offset="47.379%" stop-color="#2ADBE3"/>
            <stop offset="64.498%" stop-color="#0277BD"/>
            <stop offset="100%" stop-color="#40C4FF"/>
        </linearGradient>
        <linearGradient id="prefix__e" x1="50%" x2="50%" y1="83.875%" y2="17.489%">
            <stop offset="0%" stop-color="#00AAC7"/>
            <stop offset="36.053%" stop-color="#FFF"/>
            <stop offset="47.379%" stop-color="#2ADBE3"/>
            <stop offset="64.498%" stop-color="#0277BD"/>
            <stop offset="100%" stop-color="#40C4FF"/>
        </linearGradient>
        <linearGradient id="prefix__f" x1="50%" x2="50%" y1="83.875%" y2="17.489%">
            <stop offset="0%" stop-color="#00AAC7"/>
            <stop offset="36.053%" stop-color="#FFF"/>
            <stop offset="47.379%" stop-color="#2ADBE3"/>
            <stop offset="64.498%" stop-color="#0277BD"/>
            <stop offset="100%" stop-color="#40C4FF"/>
        </linearGradient>
        <linearGradient id="prefix__g" x1="50%" x2="50%" y1="83.875%" y2="17.489%">
            <stop offset="0%" stop-color="#00AAC7"/>
            <stop offset="36.053%" stop-color="#FFF"/>
            <stop offset="47.379%" stop-color="#2ADBE3"/>
            <stop offset="64.498%" stop-color="#0277BD"/>
            <stop offset="100%" stop-color="#40C4FF"/>
        </linearGradient>
        <linearGradient id="prefix__h" x1="50%" x2="50%" y1="83.875%" y2="17.489%">
            <stop offset="0%" stop-color="#00AAC7"/>
            <stop offset="36.053%" stop-color="#FFF"/>
            <stop offset="47.379%" stop-color="#2ADBE3"/>
            <stop offset="64.498%" stop-color="#0277BD"/>
            <stop offset="100%" stop-color="#40C4FF"/>
        </linearGradient>
        <linearGradient id="prefix__i" x1="50%" x2="50%" y1="83.875%" y2="17.489%">
            <stop offset="0%" stop-color="#00AAC7"/>
            <stop offset="36.053%" stop-color="#FFF"/>
            <stop offset="47.379%" stop-color="#2ADBE3"/>
            <stop offset="64.498%" stop-color="#0277BD"/>
            <stop offset="100%" stop-color="#40C4FF"/>
        </linearGradient>
        <linearGradient id="prefix__j" x1="50%" x2="50%" y1="83.875%" y2="17.489%">
            <stop offset="0%" stop-color="#00AAC7"/>
            <stop offset="36.053%" stop-color="#FFF"/>
            <stop offset="47.379%" stop-color="#2ADBE3"/>
            <stop offset="64.498%" stop-color="#0277BD"/>
            <stop offset="100%" stop-color="#40C4FF"/>
        </linearGradient>
        <linearGradient id="prefix__k" x1="50%" x2="50%" y1="83.875%" y2="17.489%">
            <stop offset="0%" stop-color="#00AAC7"/>
            <stop offset="36.053%" stop-color="#FFF"/>
            <stop offset="47.379%" stop-color="#2ADBE3"/>
            <stop offset="64.498%" stop-color="#0277BD"/>
            <stop offset="100%" stop-color="#40C4FF"/>
        </linearGradient>
        <linearGradient id="prefix__l" x1="50%" x2="50%" y1="83.875%" y2="17.489%">
            <stop offset="0%" stop-color="#00AAC7"/>
            <stop offset="36.053%" stop-color="#FFF"/>
            <stop offset="47.379%" stop-color="#2ADBE3"/>
            <stop offset="64.498%" stop-color="#0277BD"/>
            <stop offset="100%" stop-color="#40C4FF"/>
        </linearGradient>
        <linearGradient id="prefix__m" x1="50%" x2="50%" y1="100%" y2="0%">
            <stop offset="0%" stop-color="#0277BD"/>
            <stop offset="90.68%" stop-color="#FFF"/>
            <stop offset="84.267%" stop-color="#40ECFF"/>
        </linearGradient>
        <linearGradient id="prefix__n" x1="109.878%" x2="11.195%" y1="50%" y2="50%">
            <stop offset="0%" stop-color="#0277BD"/>
            <stop offset="34.141%" stop-color="#40C4FF"/>
            <stop offset="42.929%" stop-color="#40FEFF"/>
            <stop offset="56.266%" stop-color="#DDFEFF"/>
            <stop offset="68.11%" stop-color="#40F3FF"/>
            <stop offset="89.902%" stop-color="#0277BD"/>
            <stop offset="100%" stop-color="#23D1CE"/>
        </linearGradient>
        <filter id="prefix__a" width="143.2%" height="127.6%" x="-21.6%" y="-13.8%" filterUnits="objectBoundingBox">
            <feOffset dy="4" in="SourceAlpha" result="shadowOffsetOuter1"/>
            <feGaussianBlur in="shadowOffsetOuter1" result="shadowBlurOuter1" stdDeviation="2"/>
            <feColorMatrix in="shadowBlurOuter1" result="shadowMatrixOuter1" values="0 0 0 0 0 0 0 0 0 0 0 0 0 0 0 0 0 0 0.5 0"/>
            <feMerge>
                <feMergeNode in="shadowMatrixOuter1"/>
                <feMergeNode in="SourceGraphic"/>
            </feMerge>
        </filter>
    </defs>
    <g fill="none" fill-rule="evenodd" filter="url(#prefix__a)">
        <path fill="url(#prefix__b)" fill-rule="nonzero" d="M24 5l3.51 79.485C30.533 95.601 31.696 100 31.696 100h10.615l3.731-15.515L50 5H24z"/>
        <path fill="url(#prefix__c)" fill-rule="nonzero" d="M32 100l1.246 1.653 1.611.347h4.433l1.304-.347L42 100H32z"/>
        <path fill="url(#prefix__d)" fill-rule="nonzero" d="M27.326 61h-.897L25 59.853c.36-1.738 1.713-2.924 4.057-3.555 3.516-.948 13.241-2.563 13.63-2.563.389 0 4.841-1.193 4.841-1.99V50L50 52.302c-.216.607-.75 1.208-1.599 1.803-1.274.891-4.517 2.049-8.606 2.744-2.726.463-5.798.926-9.214 1.388-2.17.642-3.255 1.181-3.255 1.616V61z"/>
        <path fill="url(#prefix__e)" fill-rule="nonzero" d="M26.42 54h-.934L24 52.853c.375-1.738 1.781-2.924 4.219-3.555 3.657-.948 13.771-2.563 14.176-2.563.404 0 5.034-1.193 5.034-1.99V43L50 45.302c-.225.607-.78 1.208-1.663 1.803-1.325.891-4.697 2.049-8.95 2.744-2.835.463-6.03.926-9.583 1.388-2.256.642-3.384 1.181-3.384 1.616V54z"/>
        <path fill="url(#prefix__f)" fill-rule="nonzero" d="M26.513 46h-.97L24 44.853c.39-1.738 1.85-2.924 4.381-3.555 3.798-.948 14.301-2.563 14.721-2.563.42 0 5.228-1.193 5.228-1.99V35L51 37.302c-.234.607-.81 1.208-1.727 1.803-1.376.891-4.878 2.049-9.294 2.744-2.945.463-6.262.926-9.952 1.388-2.343.642-3.514 1.181-3.514 1.616V46z"/>
        <path fill="url(#prefix__g)" fill-rule="nonzero" d="M25.606 38H24.6L23 36.853c.404-1.738 1.918-2.924 4.544-3.555 3.938-.948 14.83-2.563 15.265-2.563.436 0 5.423-1.193 5.423-1.99V27L51 29.302c-.242.607-.84 1.208-1.79 1.803-1.428.891-5.06 2.049-9.64 2.744-3.053.463-6.493.926-10.32 1.388-2.43.642-3.644 1.181-3.644 1.616V38z"/>
        <path fill="url(#prefix__h)" fill-rule="nonzero" d="M27.233 68h-.861L25 66.853c.346-1.738 1.644-2.924 3.894-3.555 3.376-.948 12.712-2.563 13.086-2.563.373 0 4.647-1.193 4.647-1.99V57L49 59.302c-.208.607-.72 1.208-1.535 1.803-1.223.891-4.336 2.049-8.262 2.744-2.617.463-5.565.926-8.845 1.388-2.083.642-3.125 1.181-3.125 1.616V68z"/>
        <path fill="url(#prefix__i)" fill-rule="nonzero" d="M28.14 77h-.825L26 75.75c.332-1.898 1.576-3.19 3.732-3.88 3.235-1.034 12.182-2.795 12.54-2.795.358 0 4.454-1.301 4.454-2.172V65L49 67.511c-.2.663-.69 1.318-1.47 1.967-1.173.972-4.156 2.235-7.919 2.994-2.508.505-5.333 1.01-8.477 1.514-1.996.7-2.994 1.288-2.994 1.763V77z"/>
        <path fill="url(#prefix__j)" fill-rule="nonzero" d="M28.047 85h-.79L26 83.75c.317-1.898 1.507-3.19 3.57-3.88 3.094-1.034 11.652-2.795 11.995-2.795.342 0 4.26-1.301 4.26-2.172V73L48 75.511c-.19.663-.66 1.318-1.407 1.967-1.121.972-3.975 2.235-7.573 2.994-2.4.505-5.102 1.01-8.109 1.514-1.91.7-2.864 1.288-2.864 1.763V85z"/>
        <path fill="url(#prefix__k)" fill-rule="nonzero" d="M29.861 93h-.718L28 91.75c.288-1.898 1.37-3.19 3.245-3.88 2.813-1.034 10.594-2.795 10.905-2.795.31 0 3.873-1.301 3.873-2.172V81L48 83.511c-.173.663-.6 1.318-1.279 1.967-1.02.972-3.614 2.235-6.885 2.994-2.18.505-4.638 1.01-7.371 1.514-1.736.7-2.604 1.288-2.604 1.763V93z"/>
        <path fill="url(#prefix__l)" fill-rule="nonzero" d="M32.303 100H31.8l-.8-1.042c.202-1.581.96-2.659 2.272-3.233 1.969-.861 7.415-2.33 7.633-2.33.217 0 2.71-1.084 2.71-1.81V90L45 92.093c-.121.552-.42 1.098-.895 1.638-.714.81-2.53 1.863-4.82 2.495-1.526.422-3.246.842-5.16 1.262-1.215.584-1.822 1.074-1.822 1.47V100z"/>
        <path fill="url(#prefix__m)" fill-rule="nonzero" d="M22.802 0L18 7 56 7 50.714 0z"/>
        <path fill="url(#prefix__n)" fill-rule="nonzero" d="M56 7c-1.762 1.098-3.07 4.3-3.925 9.609-.855 5.307-.855 10.105 0 14.391-5.302-2.38-10.327-3.657-15.075-3.833-4.748-.176-9.558 1.102-14.43 3.833.703-6.067.703-10.864 0-14.391C21.865 13.08 20.341 9.879 18 7h38z"/>
        <path d="M0 0H74V115H0z"/>
    </g>
</svg>
