<svg xmlns="http://www.w3.org/2000/svg" width="74" height="116" viewBox="0 0 74 116">
    <defs>
        <linearGradient id="prefix__b" x1="97.269%" x2="9.814%" y1="50%" y2="50%">
            <stop offset="0%" stop-color="#E5E5E5"/>
            <stop offset="24.037%" stop-color="#40C4FF"/>
            <stop offset="48.158%" stop-color="#E9FBFF"/>
            <stop offset="63.756%" stop-color="#64F3FF"/>
            <stop offset="91.066%" stop-color="#0277BD"/>
            <stop offset="100%" stop-color="#19BFCF"/>
        </linearGradient>
        <linearGradient id="prefix__c" x1="97.269%" x2="-13.883%" y1="50%" y2="50%">
            <stop offset="0%" stop-color="#44C0CB"/>
            <stop offset="9.256%" stop-color="#40C4FF"/>
            <stop offset="32.91%" stop-color="#E9FBFF"/>
            <stop offset="56.334%" stop-color="#64F3FF"/>
            <stop offset="86.579%" stop-color="#219ED2"/>
            <stop offset="100%" stop-color="#47BAFF"/>
        </linearGradient>
        <linearGradient id="prefix__d" x1="50%" x2="50%" y1="83.875%" y2="17.489%">
            <stop offset="0%" stop-color="#00AAC7"/>
            <stop offset="36.053%" stop-color="#FFF"/>
            <stop offset="47.379%" stop-color="#2ADBE3"/>
            <stop offset="64.498%" stop-color="#0277BD"/>
            <stop offset="100%" stop-color="#40C4FF"/>
        </linearGradient>
        <linearGradient id="prefix__e" x1="50%" x2="50%" y1="83.875%" y2="17.489%">
            <stop offset="0%" stop-color="#00AAC7"/>
            <stop offset="36.053%" stop-color="#FFF"/>
            <stop offset="47.379%" stop-color="#2ADBE3"/>
            <stop offset="64.498%" stop-color="#0277BD"/>
            <stop offset="100%" stop-color="#40C4FF"/>
        </linearGradient>
        <linearGradient id="prefix__f" x1="50%" x2="50%" y1="83.875%" y2="17.489%">
            <stop offset="0%" stop-color="#00AAC7"/>
            <stop offset="36.053%" stop-color="#FFF"/>
            <stop offset="47.379%" stop-color="#2ADBE3"/>
            <stop offset="64.498%" stop-color="#0277BD"/>
            <stop offset="100%" stop-color="#40C4FF"/>
        </linearGradient>
        <linearGradient id="prefix__g" x1="50%" x2="50%" y1="83.875%" y2="17.489%">
            <stop offset="0%" stop-color="#00AAC7"/>
            <stop offset="36.053%" stop-color="#FFF"/>
            <stop offset="47.379%" stop-color="#2ADBE3"/>
            <stop offset="64.498%" stop-color="#0277BD"/>
            <stop offset="100%" stop-color="#40C4FF"/>
        </linearGradient>
        <linearGradient id="prefix__h" x1="50%" x2="50%" y1="83.875%" y2="17.489%">
            <stop offset="0%" stop-color="#00AAC7"/>
            <stop offset="36.053%" stop-color="#FFF"/>
            <stop offset="47.379%" stop-color="#2ADBE3"/>
            <stop offset="64.498%" stop-color="#0277BD"/>
            <stop offset="100%" stop-color="#40C4FF"/>
        </linearGradient>
        <linearGradient id="prefix__i" x1="50%" x2="50%" y1="83.875%" y2="17.489%">
            <stop offset="0%" stop-color="#00AAC7"/>
            <stop offset="36.053%" stop-color="#FFF"/>
            <stop offset="47.379%" stop-color="#2ADBE3"/>
            <stop offset="64.498%" stop-color="#0277BD"/>
            <stop offset="100%" stop-color="#40C4FF"/>
        </linearGradient>
        <linearGradient id="prefix__j" x1="50%" x2="50%" y1="83.875%" y2="17.489%">
            <stop offset="0%" stop-color="#00AAC7"/>
            <stop offset="36.053%" stop-color="#FFF"/>
            <stop offset="47.379%" stop-color="#2ADBE3"/>
            <stop offset="64.498%" stop-color="#0277BD"/>
            <stop offset="100%" stop-color="#40C4FF"/>
        </linearGradient>
        <linearGradient id="prefix__k" x1="50%" x2="50%" y1="83.875%" y2="17.489%">
            <stop offset="0%" stop-color="#00AAC7"/>
            <stop offset="36.053%" stop-color="#FFF"/>
            <stop offset="47.379%" stop-color="#2ADBE3"/>
            <stop offset="64.498%" stop-color="#0277BD"/>
            <stop offset="100%" stop-color="#40C4FF"/>
        </linearGradient>
        <linearGradient id="prefix__l" x1="50%" x2="50%" y1="83.875%" y2="17.489%">
            <stop offset="0%" stop-color="#00AAC7"/>
            <stop offset="36.053%" stop-color="#FFF"/>
            <stop offset="47.379%" stop-color="#2ADBE3"/>
            <stop offset="64.498%" stop-color="#0277BD"/>
            <stop offset="100%" stop-color="#40C4FF"/>
        </linearGradient>
        <linearGradient id="prefix__m" x1="50%" x2="50%" y1="100%" y2="0%">
            <stop offset="0%" stop-color="#0277BD"/>
            <stop offset="90.68%" stop-color="#FFF"/>
            <stop offset="84.267%" stop-color="#40ECFF"/>
        </linearGradient>
        <linearGradient id="prefix__n" x1="109.878%" x2="11.195%" y1="50%" y2="50%">
            <stop offset="0%" stop-color="#0277BD"/>
            <stop offset="34.141%" stop-color="#40C4FF"/>
            <stop offset="42.929%" stop-color="#40FEFF"/>
            <stop offset="56.266%" stop-color="#DDFEFF"/>
            <stop offset="68.11%" stop-color="#40F3FF"/>
            <stop offset="89.902%" stop-color="#0277BD"/>
            <stop offset="100%" stop-color="#23D1CE"/>
        </linearGradient>
        <filter id="prefix__a" width="143.2%" height="127.6%" x="-21.6%" y="-13.8%" filterUnits="objectBoundingBox">
            <feOffset dy="4" in="SourceAlpha" result="shadowOffsetOuter1"/>
            <feGaussianBlur in="shadowOffsetOuter1" result="shadowBlurOuter1" stdDeviation="2"/>
            <feColorMatrix in="shadowBlurOuter1" result="shadowMatrixOuter1" values="0 0 0 0 0 0 0 0 0 0 0 0 0 0 0 0 0 0 0.5 0"/>
            <feMerge>
                <feMergeNode in="shadowMatrixOuter1"/>
                <feMergeNode in="SourceGraphic"/>
            </feMerge>
        </filter>
    </defs>
    <g fill="none" fill-rule="evenodd" filter="url(#prefix__a)">
        <path fill="url(#prefix__b)" fill-rule="nonzero" d="M24 5l3.51 89.525C30.533 107.045 31.696 112 31.696 112h10.615l3.731-17.475L50 5H24z"/>
        <path fill="url(#prefix__c)" fill-rule="nonzero" d="M32 112l1.246 2.48 1.611.52h4.433l1.304-.52L42 112H32z"/>
        <path fill="url(#prefix__d)" fill-rule="nonzero" d="M27.326 69h-.897L25 67.645c.36-2.055 1.713-3.456 4.057-4.202 3.516-1.12 13.241-3.029 13.63-3.029.389 0 4.841-1.41 4.841-2.352V56L50 58.72c-.216.718-.75 1.428-1.599 2.13-1.274 1.054-4.517 2.423-8.606 3.244-2.726.548-5.798 1.095-9.214 1.64-2.17.76-3.255 1.397-3.255 1.91V69z"/>
        <path fill="url(#prefix__e)" fill-rule="nonzero" d="M26.42 61h-.934L24 59.645c.375-2.055 1.781-3.456 4.219-4.202 3.657-1.12 13.771-3.029 14.176-3.029.404 0 5.034-1.41 5.034-2.352V48L50 50.72c-.225.718-.78 1.428-1.663 2.13-1.325 1.054-4.697 2.423-8.95 3.244-2.835.548-6.03 1.095-9.583 1.64-2.256.76-3.384 1.397-3.384 1.91V61z"/>
        <path fill="url(#prefix__f)" fill-rule="nonzero" d="M26.513 52h-.97L24 50.645c.39-2.055 1.85-3.456 4.381-4.202 3.798-1.12 14.301-3.029 14.721-3.029.42 0 5.228-1.41 5.228-2.352V39L51 41.72c-.234.718-.81 1.428-1.727 2.13-1.376 1.054-4.878 2.423-9.294 3.244-2.945.548-6.262 1.095-9.952 1.64-2.343.76-3.514 1.397-3.514 1.91V52z"/>
        <path fill="url(#prefix__g)" fill-rule="nonzero" d="M25.606 43H24.6L23 41.645c.404-2.055 1.918-3.456 4.544-4.202 3.938-1.12 14.83-3.029 15.265-3.029.436 0 5.423-1.41 5.423-2.352V30L51 32.72c-.242.718-.84 1.428-1.79 2.13-1.428 1.054-5.06 2.423-9.64 3.244-3.053.548-6.493 1.095-10.32 1.64-2.43.76-3.644 1.397-3.644 1.91V43z"/>
        <path fill="url(#prefix__h)" fill-rule="nonzero" d="M27.233 77h-.861L25 75.645c.346-2.055 1.644-3.456 3.894-4.202 3.376-1.12 12.712-3.029 13.086-3.029.373 0 4.647-1.41 4.647-2.352V64L49 66.72c-.208.718-.72 1.428-1.535 2.13-1.223 1.054-4.336 2.423-8.262 3.244-2.617.548-5.565 1.095-8.845 1.64-2.083.76-3.125 1.397-3.125 1.91V77z"/>
        <path fill="url(#prefix__i)" fill-rule="nonzero" d="M28.14 86h-.825L26 84.645c.332-2.055 1.576-3.456 3.732-4.202 3.235-1.12 12.182-3.029 12.54-3.029.358 0 4.454-1.41 4.454-2.352V73L49 75.72c-.2.718-.69 1.428-1.47 2.13-1.173 1.054-4.156 2.423-7.919 3.244-2.508.548-5.333 1.095-8.477 1.64-1.996.76-2.994 1.397-2.994 1.91V86z"/>
        <path fill="url(#prefix__j)" fill-rule="nonzero" d="M28.047 95h-.79L26 93.645c.317-2.055 1.507-3.456 3.57-4.202 3.094-1.12 11.652-3.029 11.995-3.029.342 0 4.26-1.41 4.26-2.352V82L48 84.72c-.19.718-.66 1.428-1.407 2.13-1.121 1.054-3.975 2.423-7.573 3.244-2.4.548-5.102 1.095-8.109 1.64-1.91.76-2.864 1.397-2.864 1.91V95z"/>
        <path fill="url(#prefix__k)" fill-rule="nonzero" d="M29.861 105h-.718L28 103.54c.288-2.212 1.37-3.72 3.245-4.525 2.813-1.206 10.594-3.261 10.905-3.261.31 0 3.873-1.518 3.873-2.534V91L48 93.93c-.173.773-.6 1.538-1.279 2.294-1.02 1.135-3.614 2.608-6.885 3.493-2.18.59-4.638 1.178-7.371 1.766-1.736.818-2.604 1.504-2.604 2.058V105z"/>
        <path fill="url(#prefix__l)" fill-rule="nonzero" d="M32.303 112H31.8l-.8-1.042c.202-1.581.96-2.659 2.272-3.233 1.969-.861 7.415-2.33 7.633-2.33.217 0 2.71-1.084 2.71-1.81V102L45 104.093c-.121.552-.42 1.098-.895 1.638-.714.81-2.53 1.863-4.82 2.495-1.526.422-3.246.842-5.16 1.262-1.215.584-1.822 1.074-1.822 1.47V112z"/>
        <path fill="url(#prefix__m)" fill-rule="nonzero" d="M22.802 0L18 8 56 8 50.714 0z"/>
        <path fill="url(#prefix__n)" fill-rule="nonzero" d="M56 8c-1.762 1.235-3.07 4.838-3.925 10.81-.855 5.971-.855 11.368 0 16.19-5.302-2.677-10.327-4.114-15.075-4.312-4.748-.198-9.558 1.24-14.43 4.312.703-6.825.703-12.222 0-16.19C21.865 14.84 20.341 11.238 18 8h38z"/>
        <path d="M0 0H74V115H0z"/>
    </g>
</svg>
