<svg xmlns="http://www.w3.org/2000/svg" width="74" height="116" viewBox="0 0 74 116">
    <defs>
        <linearGradient id="prefix__b" x1="97.269%" x2="9.814%" y1="50%" y2="50%">
            <stop offset="0%" stop-color="#E5E5E5"/>
            <stop offset="24.037%" stop-color="#40C4FF"/>
            <stop offset="48.158%" stop-color="#E9FBFF"/>
            <stop offset="63.756%" stop-color="#64F3FF"/>
            <stop offset="91.066%" stop-color="#0277BD"/>
            <stop offset="100%" stop-color="#19BFCF"/>
        </linearGradient>
        <linearGradient id="prefix__c" x1="97.269%" x2="-13.883%" y1="50%" y2="50%">
            <stop offset="0%" stop-color="#44C0CB"/>
            <stop offset="9.256%" stop-color="#40C4FF"/>
            <stop offset="32.91%" stop-color="#E9FBFF"/>
            <stop offset="56.334%" stop-color="#64F3FF"/>
            <stop offset="86.579%" stop-color="#219ED2"/>
            <stop offset="100%" stop-color="#47BAFF"/>
        </linearGradient>
        <linearGradient id="prefix__d" x1="50%" x2="50%" y1="83.875%" y2="17.489%">
            <stop offset="0%" stop-color="#00AAC7"/>
            <stop offset="36.053%" stop-color="#FFF"/>
            <stop offset="47.379%" stop-color="#2ADBE3"/>
            <stop offset="64.498%" stop-color="#0277BD"/>
            <stop offset="100%" stop-color="#40C4FF"/>
        </linearGradient>
        <linearGradient id="prefix__e" x1="50%" x2="50%" y1="83.875%" y2="17.489%">
            <stop offset="0%" stop-color="#00AAC7"/>
            <stop offset="36.053%" stop-color="#FFF"/>
            <stop offset="47.379%" stop-color="#2ADBE3"/>
            <stop offset="64.498%" stop-color="#0277BD"/>
            <stop offset="100%" stop-color="#40C4FF"/>
        </linearGradient>
        <linearGradient id="prefix__f" x1="50%" x2="50%" y1="83.875%" y2="17.489%">
            <stop offset="0%" stop-color="#00AAC7"/>
            <stop offset="36.053%" stop-color="#FFF"/>
            <stop offset="47.379%" stop-color="#2ADBE3"/>
            <stop offset="64.498%" stop-color="#0277BD"/>
            <stop offset="100%" stop-color="#40C4FF"/>
        </linearGradient>
        <linearGradient id="prefix__g" x1="50%" x2="50%" y1="83.875%" y2="17.489%">
            <stop offset="0%" stop-color="#00AAC7"/>
            <stop offset="36.053%" stop-color="#FFF"/>
            <stop offset="47.379%" stop-color="#2ADBE3"/>
            <stop offset="64.498%" stop-color="#0277BD"/>
            <stop offset="100%" stop-color="#40C4FF"/>
        </linearGradient>
        <linearGradient id="prefix__h" x1="50%" x2="50%" y1="83.875%" y2="17.489%">
            <stop offset="0%" stop-color="#00AAC7"/>
            <stop offset="36.053%" stop-color="#FFF"/>
            <stop offset="47.379%" stop-color="#2ADBE3"/>
            <stop offset="64.498%" stop-color="#0277BD"/>
            <stop offset="100%" stop-color="#40C4FF"/>
        </linearGradient>
        <linearGradient id="prefix__i" x1="50%" x2="50%" y1="83.875%" y2="17.489%">
            <stop offset="0%" stop-color="#00AAC7"/>
            <stop offset="36.053%" stop-color="#FFF"/>
            <stop offset="47.379%" stop-color="#2ADBE3"/>
            <stop offset="64.498%" stop-color="#0277BD"/>
            <stop offset="100%" stop-color="#40C4FF"/>
        </linearGradient>
        <linearGradient id="prefix__j" x1="50%" x2="50%" y1="83.875%" y2="17.489%">
            <stop offset="0%" stop-color="#00AAC7"/>
            <stop offset="36.053%" stop-color="#FFF"/>
            <stop offset="47.379%" stop-color="#2ADBE3"/>
            <stop offset="64.498%" stop-color="#0277BD"/>
            <stop offset="100%" stop-color="#40C4FF"/>
        </linearGradient>
        <linearGradient id="prefix__k" x1="50%" x2="50%" y1="83.875%" y2="17.489%">
            <stop offset="0%" stop-color="#00AAC7"/>
            <stop offset="36.053%" stop-color="#FFF"/>
            <stop offset="47.379%" stop-color="#2ADBE3"/>
            <stop offset="64.498%" stop-color="#0277BD"/>
            <stop offset="100%" stop-color="#40C4FF"/>
        </linearGradient>
        <linearGradient id="prefix__l" x1="50%" x2="50%" y1="83.875%" y2="17.489%">
            <stop offset="0%" stop-color="#00AAC7"/>
            <stop offset="36.053%" stop-color="#FFF"/>
            <stop offset="47.379%" stop-color="#2ADBE3"/>
            <stop offset="64.498%" stop-color="#0277BD"/>
            <stop offset="100%" stop-color="#40C4FF"/>
        </linearGradient>
        <linearGradient id="prefix__m" x1="50%" x2="50%" y1="100%" y2="0%">
            <stop offset="0%" stop-color="#0277BD"/>
            <stop offset="90.68%" stop-color="#FFF"/>
            <stop offset="84.267%" stop-color="#40ECFF"/>
        </linearGradient>
        <linearGradient id="prefix__n" x1="109.878%" x2="11.195%" y1="50%" y2="50%">
            <stop offset="0%" stop-color="#0277BD"/>
            <stop offset="34.141%" stop-color="#40C4FF"/>
            <stop offset="42.929%" stop-color="#40FEFF"/>
            <stop offset="56.266%" stop-color="#DDFEFF"/>
            <stop offset="68.11%" stop-color="#40F3FF"/>
            <stop offset="89.902%" stop-color="#0277BD"/>
            <stop offset="100%" stop-color="#23D1CE"/>
        </linearGradient>
        <filter id="prefix__a" width="143.2%" height="127.6%" x="-21.6%" y="-13.8%" filterUnits="objectBoundingBox">
            <feOffset dy="4" in="SourceAlpha" result="shadowOffsetOuter1"/>
            <feGaussianBlur in="shadowOffsetOuter1" result="shadowBlurOuter1" stdDeviation="2"/>
            <feColorMatrix in="shadowBlurOuter1" result="shadowMatrixOuter1" values="0 0 0 0 0 0 0 0 0 0 0 0 0 0 0 0 0 0 0.5 0"/>
            <feMerge>
                <feMergeNode in="shadowMatrixOuter1"/>
                <feMergeNode in="SourceGraphic"/>
            </feMerge>
        </filter>
    </defs>
    <g fill="none" fill-rule="evenodd" filter="url(#prefix__a)">
        <path fill="url(#prefix__b)" fill-rule="nonzero" d="M21 4l4.454 80.322C29.292 95.554 30.768 100 30.768 100h13.473l4.736-15.678L54 4H21z"/>
        <path fill="url(#prefix__c)" fill-rule="nonzero" d="M31 100l1.62 1.653 2.094.347h5.764l1.695-.347L44 100H31z"/>
        <path fill="url(#prefix__d)" fill-rule="nonzero" d="M24.978 61h-1.149L22 59.75c.461-1.898 2.192-3.19 5.193-3.88 4.5-1.034 16.949-2.795 17.446-2.795.498 0 6.197-1.301 6.197-2.172V49L54 51.511c-.277.663-.96 1.318-2.046 1.967-1.631.972-5.782 2.235-11.016 2.994-3.49.505-7.421 1.01-11.795 1.514-2.777.7-4.165 1.288-4.165 1.763V61z"/>
        <path fill="url(#prefix__e)" fill-rule="nonzero" d="M24.07 55h-1.183L21 53.75c.476-1.898 2.26-3.19 5.355-3.88 4.641-1.034 17.479-2.795 17.992-2.795.513 0 6.39-1.301 6.39-2.172V43L54 45.511c-.286.663-.99 1.318-2.11 1.967-1.682.972-5.963 2.235-11.36 2.994-3.6.505-7.653 1.01-12.163 1.514-2.864.7-4.296 1.288-4.296 1.763V55z"/>
        <path fill="url(#prefix__f)" fill-rule="nonzero" d="M24.164 46h-1.22L21 44.853c.49-1.738 2.33-2.924 5.517-3.555 4.782-.948 18.009-2.563 18.537-2.563.53 0 6.584-1.193 6.584-1.99V35L55 37.302c-.294.607-1.02 1.208-2.174 1.803-1.733.891-6.143 2.049-11.705 2.744-3.707.463-7.884.926-12.531 1.388-2.95.642-4.426 1.181-4.426 1.616V46z"/>
        <path fill="url(#prefix__g)" fill-rule="nonzero" d="M23.257 38h-1.256L20 36.75c.505-1.898 2.398-3.19 5.68-3.88 4.922-1.034 18.537-2.795 19.082-2.795.544 0 6.777-1.301 6.777-2.172V26L55 28.511c-.303.663-1.049 1.318-2.238 1.967-1.784.972-6.324 2.235-12.049 2.994-3.817.505-8.117 1.01-12.9 1.514-3.037.7-4.556 1.288-4.556 1.763V38z"/>
        <path fill="url(#prefix__h)" fill-rule="nonzero" d="M24.885 68h-1.113L22 66.853c.447-1.738 2.124-2.924 5.03-3.555 4.36-.948 16.42-2.563 16.902-2.563.482 0 6.003-1.193 6.003-1.99V57L53 59.302c-.268.607-.93 1.208-1.982 1.803-1.58.891-5.602 2.049-10.672 2.744-3.38.463-7.19.926-11.426 1.388-2.69.642-4.035 1.181-4.035 1.616V68z"/>
        <path fill="url(#prefix__i)" fill-rule="nonzero" d="M25.792 77h-1.077L23 75.75c.433-1.898 2.055-3.19 4.868-3.88 4.22-1.034 15.89-2.795 16.356-2.795.467 0 5.81-1.301 5.81-2.172V65L53 67.511c-.26.663-.9 1.318-1.918 1.967-1.53.972-5.42 2.235-10.328 2.994-3.271.505-6.957 1.01-11.057 1.514-2.603.7-3.905 1.288-3.905 1.763V77z"/>
        <path fill="url(#prefix__j)" fill-rule="nonzero" d="M25.699 84h-1.041L23 82.853c.418-1.738 1.987-2.924 4.706-3.555 4.078-.948 15.36-2.563 15.811-2.563.451 0 5.616-1.193 5.616-1.99V73L52 75.302c-.251.607-.87 1.208-1.855 1.803-1.478.891-5.24 2.049-9.983 2.744-3.162.463-6.725.926-10.688 1.388-2.517.642-3.775 1.181-3.775 1.616V84z"/>
        <path fill="url(#prefix__k)" fill-rule="nonzero" d="M28.326 93h-.897L26 91.75c.36-1.898 1.713-3.19 4.057-3.88 3.516-1.034 13.241-2.795 13.63-2.795.389 0 4.841-1.301 4.841-2.172V81L51 83.511c-.216.663-.75 1.318-1.599 1.967-1.274.972-4.517 2.235-8.606 2.994-2.726.505-5.798 1.01-9.214 1.514-2.17.7-3.255 1.288-3.255 1.763V93z"/>
        <path fill="url(#prefix__l)" fill-rule="nonzero" d="M30.768 100h-.682L29 98.958c.274-1.581 1.302-2.659 3.083-3.233 2.672-.861 10.064-2.33 10.36-2.33.295 0 3.678-1.084 3.678-1.81V90L48 92.093c-.164.552-.57 1.098-1.215 1.638-.968.81-3.433 1.863-6.54 2.495-2.073.422-4.407.842-7.004 1.262-1.648.584-2.473 1.074-2.473 1.47V100z"/>
        <path fill="url(#prefix__m)" fill-rule="nonzero" d="M19.065 0L13 7 61 7 54.323 0z"/>
        <path fill="url(#prefix__n)" fill-rule="nonzero" d="M61 7c-2.226 1.144-3.879 4.48-4.958 10.009-1.08 5.529-1.08 10.526 0 14.991-6.697-2.478-13.044-3.81-19.042-3.993-5.998-.183-12.074 1.148-18.229 3.993.89-6.32.89-11.317 0-14.991C17.883 13.335 15.96 9.999 13 7h48z"/>
        <path d="M0 0H74V115H0z"/>
    </g>
</svg>
