<svg xmlns="http://www.w3.org/2000/svg" width="74" height="116" viewBox="0 0 74 116">
    <defs>
        <linearGradient id="prefix__b" x1="97.269%" x2="9.814%" y1="50%" y2="50%">
            <stop offset="0%" stop-color="#E5E5E5"/>
            <stop offset="24.037%" stop-color="#40C4FF"/>
            <stop offset="48.158%" stop-color="#E9FBFF"/>
            <stop offset="63.756%" stop-color="#64F3FF"/>
            <stop offset="91.066%" stop-color="#0277BD"/>
            <stop offset="100%" stop-color="#19BFCF"/>
        </linearGradient>
        <linearGradient id="prefix__c" x1="97.269%" x2="-13.883%" y1="50%" y2="50%">
            <stop offset="0%" stop-color="#44C0CB"/>
            <stop offset="9.256%" stop-color="#40C4FF"/>
            <stop offset="32.91%" stop-color="#E9FBFF"/>
            <stop offset="56.334%" stop-color="#64F3FF"/>
            <stop offset="86.579%" stop-color="#219ED2"/>
            <stop offset="100%" stop-color="#47BAFF"/>
        </linearGradient>
        <linearGradient id="prefix__d" x1="50%" x2="50%" y1="83.875%" y2="17.489%">
            <stop offset="0%" stop-color="#00AAC7"/>
            <stop offset="36.053%" stop-color="#FFF"/>
            <stop offset="47.379%" stop-color="#2ADBE3"/>
            <stop offset="64.498%" stop-color="#0277BD"/>
            <stop offset="100%" stop-color="#40C4FF"/>
        </linearGradient>
        <linearGradient id="prefix__e" x1="50%" x2="50%" y1="83.875%" y2="17.489%">
            <stop offset="0%" stop-color="#00AAC7"/>
            <stop offset="36.053%" stop-color="#FFF"/>
            <stop offset="47.379%" stop-color="#2ADBE3"/>
            <stop offset="64.498%" stop-color="#0277BD"/>
            <stop offset="100%" stop-color="#40C4FF"/>
        </linearGradient>
        <linearGradient id="prefix__f" x1="50%" x2="50%" y1="83.875%" y2="17.489%">
            <stop offset="0%" stop-color="#00AAC7"/>
            <stop offset="36.053%" stop-color="#FFF"/>
            <stop offset="47.379%" stop-color="#2ADBE3"/>
            <stop offset="64.498%" stop-color="#0277BD"/>
            <stop offset="100%" stop-color="#40C4FF"/>
        </linearGradient>
        <linearGradient id="prefix__g" x1="50%" x2="50%" y1="83.875%" y2="17.489%">
            <stop offset="0%" stop-color="#00AAC7"/>
            <stop offset="36.053%" stop-color="#FFF"/>
            <stop offset="47.379%" stop-color="#2ADBE3"/>
            <stop offset="64.498%" stop-color="#0277BD"/>
            <stop offset="100%" stop-color="#40C4FF"/>
        </linearGradient>
        <linearGradient id="prefix__h" x1="50%" x2="50%" y1="83.875%" y2="17.489%">
            <stop offset="0%" stop-color="#00AAC7"/>
            <stop offset="36.053%" stop-color="#FFF"/>
            <stop offset="47.379%" stop-color="#2ADBE3"/>
            <stop offset="64.498%" stop-color="#0277BD"/>
            <stop offset="100%" stop-color="#40C4FF"/>
        </linearGradient>
        <linearGradient id="prefix__i" x1="50%" x2="50%" y1="83.875%" y2="17.489%">
            <stop offset="0%" stop-color="#00AAC7"/>
            <stop offset="36.053%" stop-color="#FFF"/>
            <stop offset="47.379%" stop-color="#2ADBE3"/>
            <stop offset="64.498%" stop-color="#0277BD"/>
            <stop offset="100%" stop-color="#40C4FF"/>
        </linearGradient>
        <linearGradient id="prefix__j" x1="50%" x2="50%" y1="100%" y2="0%">
            <stop offset="0%" stop-color="#0277BD"/>
            <stop offset="90.68%" stop-color="#FFF"/>
            <stop offset="84.267%" stop-color="#40ECFF"/>
        </linearGradient>
        <linearGradient id="prefix__k" x1="109.878%" x2="11.195%" y1="50%" y2="50%">
            <stop offset="0%" stop-color="#0277BD"/>
            <stop offset="34.141%" stop-color="#40C4FF"/>
            <stop offset="42.929%" stop-color="#40FEFF"/>
            <stop offset="56.266%" stop-color="#DDFEFF"/>
            <stop offset="68.11%" stop-color="#40F3FF"/>
            <stop offset="89.902%" stop-color="#0277BD"/>
            <stop offset="100%" stop-color="#23D1CE"/>
        </linearGradient>
        <filter id="prefix__a" width="143.2%" height="127.6%" x="-21.6%" y="-13.8%" filterUnits="objectBoundingBox">
            <feOffset dy="4" in="SourceAlpha" result="shadowOffsetOuter1"/>
            <feGaussianBlur in="shadowOffsetOuter1" result="shadowBlurOuter1" stdDeviation="2"/>
            <feColorMatrix in="shadowBlurOuter1" result="shadowMatrixOuter1" values="0 0 0 0 0 0 0 0 0 0 0 0 0 0 0 0 0 0 0.5 0"/>
            <feMerge>
                <feMergeNode in="shadowMatrixOuter1"/>
                <feMergeNode in="SourceGraphic"/>
            </feMerge>
        </filter>
    </defs>
    <g fill="none" fill-rule="evenodd" filter="url(#prefix__a)">
        <path fill="url(#prefix__b)" fill-rule="nonzero" d="M30 4l1.89 68.608C33.518 82.203 34.144 86 34.144 86h5.716l2.009-13.392L44 4H30z"/>
        <path fill="url(#prefix__c)" fill-rule="nonzero" d="M35 86l.499 1.653.644.347h1.773l.522-.347L39 86h-4z"/>
        <path fill="url(#prefix__d)" fill-rule="nonzero" d="M31.303 53H30.8l-.8-1.042c.202-1.581.96-2.659 2.272-3.233 1.969-.861 7.415-2.33 7.633-2.33.217 0 2.71-1.084 2.71-1.81V43L44 45.093c-.121.552-.42 1.098-.895 1.638-.714.81-2.53 1.863-4.82 2.495-1.526.422-3.246.842-5.16 1.262-1.215.584-1.822 1.074-1.822 1.47V53z"/>
        <path fill="url(#prefix__e)" fill-rule="nonzero" d="M31.303 47H30.8l-.8-.938c.202-1.423.96-2.392 2.272-2.91 1.969-.775 7.415-2.096 7.633-2.096.217 0 2.71-.976 2.71-1.629V38L44 39.883c-.121.497-.42.989-.895 1.475-.714.73-2.53 1.677-4.82 2.246-1.526.379-3.246.757-5.16 1.135-1.215.526-1.822.967-1.822 1.323V47z"/>
        <path fill="url(#prefix__e)" fill-rule="nonzero" d="M31.303 40H30.8l-.8-.938c.202-1.423.96-2.392 2.272-2.91 1.969-.775 7.415-2.096 7.633-2.096.217 0 2.71-.976 2.71-1.629V31L44 32.883c-.121.497-.42.989-.895 1.475-.714.73-2.53 1.677-4.82 2.246-1.526.379-3.246.757-5.16 1.135-1.215.526-1.822.967-1.822 1.323V40z"/>
        <path fill="url(#prefix__d)" fill-rule="nonzero" d="M31.303 33H30.8l-.8-1.042c.202-1.581.96-2.659 2.272-3.233 1.969-.861 7.415-2.33 7.633-2.33.217 0 2.71-1.084 2.71-1.81V23L44 25.093c-.121.552-.42 1.098-.895 1.638-.714.81-2.53 1.863-4.82 2.495-1.526.422-3.246.842-5.16 1.262-1.215.584-1.822 1.074-1.822 1.47V33z"/>
        <path fill="url(#prefix__f)" fill-rule="nonzero" d="M32.21 59h-.467L31 57.958c.187-1.581.89-2.659 2.11-3.233 1.828-.861 6.885-2.33 7.087-2.33.202 0 2.518-1.084 2.518-1.81V49L44 51.093c-.113.552-.39 1.098-.831 1.638-.663.81-2.35 1.863-4.476 2.495-1.417.422-3.014.842-4.791 1.262-1.128.584-1.692 1.074-1.692 1.47V59z"/>
        <path fill="url(#prefix__g)" fill-rule="nonzero" d="M32.117 66h-.431L31 64.958c.173-1.581.822-2.659 1.947-3.233 1.688-.861 6.356-2.33 6.543-2.33.186 0 2.324-1.084 2.324-1.81V56L43 58.093c-.104.552-.36 1.098-.767 1.638-.612.81-2.169 1.863-4.131 2.495-1.309.422-2.783.842-4.423 1.262-1.042.584-1.562 1.074-1.562 1.47V66z"/>
        <path fill="url(#prefix__g)" fill-rule="nonzero" d="M32.117 73h-.431L31 71.958c.173-1.581.822-2.659 1.947-3.233 1.688-.861 6.356-2.33 6.543-2.33.186 0 2.324-1.084 2.324-1.81V63L43 65.093c-.104.552-.36 1.098-.767 1.638-.612.81-2.169 1.863-4.131 2.495-1.309.422-2.783.842-4.423 1.262-1.042.584-1.562 1.074-1.562 1.47V73z"/>
        <path fill="url(#prefix__h)" fill-rule="nonzero" d="M33.024 80h-.395L32 78.958c.159-1.581.754-2.659 1.785-3.233 1.547-.861 5.826-2.33 5.997-2.33.171 0 2.13-1.084 2.13-1.81V70L43 72.093c-.095.552-.33 1.098-.703 1.638-.561.81-1.988 1.863-3.787 2.495-1.2.422-2.551.842-4.054 1.262-.955.584-1.432 1.074-1.432 1.47V80z"/>
        <path fill="url(#prefix__i)" fill-rule="nonzero" d="M34.651 86h-.25L34 85.062c.1-1.423.48-2.392 1.136-2.91.984-.775 3.707-2.096 3.816-2.096.11 0 1.356-.976 1.356-1.629V77L41 78.883c-.06.497-.21.989-.448 1.475-.356.73-1.264 1.677-2.41 2.246-.763.379-1.623.757-2.58 1.135-.607.526-.91.967-.91 1.323V86z"/>
        <path fill="url(#prefix__j)" fill-rule="nonzero" d="M29.527 0L27 6 47 6 44.218 0z"/>
        <path fill="url(#prefix__k)" fill-rule="nonzero" d="M47 6c-.928.96-1.616 3.763-2.066 8.407-.45 4.645-.45 8.842 0 12.593-2.79-2.082-5.435-3.2-7.934-3.354-2.499-.154-5.03.964-7.595 3.354.37-5.309.37-9.506 0-12.593C29.035 11.321 28.233 8.52 27 6h20z"/>
        <path d="M0 0H74V115H0z"/>
    </g>
</svg>
