<svg xmlns="http://www.w3.org/2000/svg" width="74" height="116" viewBox="0 0 74 116">
    <defs>
        <linearGradient id="prefix__b" x1="97.269%" x2="9.814%" y1="50%" y2="50%">
            <stop offset="0%" stop-color="#E5E5E5"/>
            <stop offset="24.037%" stop-color="#40C4FF"/>
            <stop offset="48.158%" stop-color="#E9FBFF"/>
            <stop offset="63.756%" stop-color="#64F3FF"/>
            <stop offset="91.066%" stop-color="#0277BD"/>
            <stop offset="100%" stop-color="#19BFCF"/>
        </linearGradient>
        <linearGradient id="prefix__c" x1="97.269%" x2="-13.883%" y1="50%" y2="50%">
            <stop offset="0%" stop-color="#44C0CB"/>
            <stop offset="9.256%" stop-color="#40C4FF"/>
            <stop offset="32.91%" stop-color="#E9FBFF"/>
            <stop offset="56.334%" stop-color="#64F3FF"/>
            <stop offset="86.579%" stop-color="#219ED2"/>
            <stop offset="100%" stop-color="#47BAFF"/>
        </linearGradient>
        <linearGradient id="prefix__d" x1="50%" x2="50%" y1="83.875%" y2="17.489%">
            <stop offset="0%" stop-color="#00AAC7"/>
            <stop offset="36.053%" stop-color="#FFF"/>
            <stop offset="47.379%" stop-color="#2ADBE3"/>
            <stop offset="64.498%" stop-color="#0277BD"/>
            <stop offset="100%" stop-color="#40C4FF"/>
        </linearGradient>
        <linearGradient id="prefix__e" x1="50%" x2="50%" y1="83.875%" y2="17.489%">
            <stop offset="0%" stop-color="#00AAC7"/>
            <stop offset="36.053%" stop-color="#FFF"/>
            <stop offset="47.379%" stop-color="#2ADBE3"/>
            <stop offset="64.498%" stop-color="#0277BD"/>
            <stop offset="100%" stop-color="#40C4FF"/>
        </linearGradient>
        <linearGradient id="prefix__f" x1="50%" x2="50%" y1="83.875%" y2="17.489%">
            <stop offset="0%" stop-color="#00AAC7"/>
            <stop offset="36.053%" stop-color="#FFF"/>
            <stop offset="47.379%" stop-color="#2ADBE3"/>
            <stop offset="64.498%" stop-color="#0277BD"/>
            <stop offset="100%" stop-color="#40C4FF"/>
        </linearGradient>
        <linearGradient id="prefix__g" x1="50%" x2="50%" y1="83.875%" y2="17.489%">
            <stop offset="0%" stop-color="#00AAC7"/>
            <stop offset="36.053%" stop-color="#FFF"/>
            <stop offset="47.379%" stop-color="#2ADBE3"/>
            <stop offset="64.498%" stop-color="#0277BD"/>
            <stop offset="100%" stop-color="#40C4FF"/>
        </linearGradient>
        <linearGradient id="prefix__h" x1="50%" x2="50%" y1="83.875%" y2="17.489%">
            <stop offset="0%" stop-color="#00AAC7"/>
            <stop offset="36.053%" stop-color="#FFF"/>
            <stop offset="47.379%" stop-color="#2ADBE3"/>
            <stop offset="64.498%" stop-color="#0277BD"/>
            <stop offset="100%" stop-color="#40C4FF"/>
        </linearGradient>
        <linearGradient id="prefix__i" x1="50%" x2="50%" y1="83.875%" y2="17.489%">
            <stop offset="0%" stop-color="#00AAC7"/>
            <stop offset="36.053%" stop-color="#FFF"/>
            <stop offset="47.379%" stop-color="#2ADBE3"/>
            <stop offset="64.498%" stop-color="#0277BD"/>
            <stop offset="100%" stop-color="#40C4FF"/>
        </linearGradient>
        <linearGradient id="prefix__j" x1="50%" x2="50%" y1="83.875%" y2="17.489%">
            <stop offset="0%" stop-color="#00AAC7"/>
            <stop offset="36.053%" stop-color="#FFF"/>
            <stop offset="47.379%" stop-color="#2ADBE3"/>
            <stop offset="64.498%" stop-color="#0277BD"/>
            <stop offset="100%" stop-color="#40C4FF"/>
        </linearGradient>
        <linearGradient id="prefix__k" x1="50%" x2="50%" y1="83.875%" y2="17.489%">
            <stop offset="0%" stop-color="#00AAC7"/>
            <stop offset="36.053%" stop-color="#FFF"/>
            <stop offset="47.379%" stop-color="#2ADBE3"/>
            <stop offset="64.498%" stop-color="#0277BD"/>
            <stop offset="100%" stop-color="#40C4FF"/>
        </linearGradient>
        <linearGradient id="prefix__l" x1="50%" x2="50%" y1="83.875%" y2="17.489%">
            <stop offset="0%" stop-color="#00AAC7"/>
            <stop offset="36.053%" stop-color="#FFF"/>
            <stop offset="47.379%" stop-color="#2ADBE3"/>
            <stop offset="64.498%" stop-color="#0277BD"/>
            <stop offset="100%" stop-color="#40C4FF"/>
        </linearGradient>
        <linearGradient id="prefix__m" x1="50%" x2="50%" y1="100%" y2="0%">
            <stop offset="0%" stop-color="#0277BD"/>
            <stop offset="90.68%" stop-color="#FFF"/>
            <stop offset="84.267%" stop-color="#40ECFF"/>
        </linearGradient>
        <linearGradient id="prefix__n" x1="109.878%" x2="11.195%" y1="50%" y2="50%">
            <stop offset="0%" stop-color="#0277BD"/>
            <stop offset="34.141%" stop-color="#40C4FF"/>
            <stop offset="42.929%" stop-color="#40FEFF"/>
            <stop offset="56.266%" stop-color="#DDFEFF"/>
            <stop offset="68.11%" stop-color="#40F3FF"/>
            <stop offset="89.902%" stop-color="#0277BD"/>
            <stop offset="100%" stop-color="#23D1CE"/>
        </linearGradient>
        <filter id="prefix__a" width="143.2%" height="127.6%" x="-21.6%" y="-13.8%" filterUnits="objectBoundingBox">
            <feOffset dy="4" in="SourceAlpha" result="shadowOffsetOuter1"/>
            <feGaussianBlur in="shadowOffsetOuter1" result="shadowBlurOuter1" stdDeviation="2"/>
            <feColorMatrix in="shadowBlurOuter1" result="shadowMatrixOuter1" values="0 0 0 0 0 0 0 0 0 0 0 0 0 0 0 0 0 0 0.5 0"/>
            <feMerge>
                <feMergeNode in="shadowMatrixOuter1"/>
                <feMergeNode in="SourceGraphic"/>
            </feMerge>
        </filter>
    </defs>
    <g fill="none" fill-rule="evenodd" filter="url(#prefix__a)">
        <path fill="url(#prefix__b)" fill-rule="nonzero" d="M21 5l4.454 89.525C29.292 107.045 30.768 112 30.768 112h13.473l4.736-17.475L54 5H21z"/>
        <path fill="url(#prefix__c)" fill-rule="nonzero" d="M31 112l1.62 2.48 2.094.52h5.764l1.695-.52L44 112H31z"/>
        <path fill="url(#prefix__d)" fill-rule="nonzero" d="M24.978 69h-1.149L22 67.645c.461-2.055 2.192-3.456 5.193-4.202 4.5-1.12 16.949-3.029 17.446-3.029.498 0 6.197-1.41 6.197-2.352V56L54 58.72c-.277.718-.96 1.428-2.046 2.13-1.631 1.054-5.782 2.423-11.016 3.244-3.49.548-7.421 1.095-11.795 1.64-2.777.76-4.165 1.397-4.165 1.91V69z"/>
        <path fill="url(#prefix__e)" fill-rule="nonzero" d="M24.07 61h-1.183L21 59.645c.476-2.055 2.26-3.456 5.355-4.202 4.641-1.12 17.479-3.029 17.992-3.029.513 0 6.39-1.41 6.39-2.352V48L54 50.72c-.286.718-.99 1.428-2.11 2.13-1.682 1.054-5.963 2.423-11.36 3.244-3.6.548-7.653 1.095-12.163 1.64-2.864.76-4.296 1.397-4.296 1.91V61z"/>
        <path fill="url(#prefix__f)" fill-rule="nonzero" d="M24.164 52h-1.22L21 50.645c.49-2.055 2.33-3.456 5.517-4.202 4.782-1.12 18.009-3.029 18.537-3.029.53 0 6.584-1.41 6.584-2.352V39L55 41.72c-.294.718-1.02 1.428-2.174 2.13-1.733 1.054-6.143 2.423-11.705 3.244-3.707.548-7.884 1.095-12.531 1.64-2.95.76-4.426 1.397-4.426 1.91V52z"/>
        <path fill="url(#prefix__g)" fill-rule="nonzero" d="M23.257 43h-1.256L20 41.645c.505-2.055 2.398-3.456 5.68-4.202 4.922-1.12 18.537-3.029 19.082-3.029.544 0 6.777-1.41 6.777-2.352V30L55 32.72c-.303.718-1.049 1.428-2.238 2.13-1.784 1.054-6.324 2.423-12.049 3.244-3.817.548-8.117 1.095-12.9 1.64-3.037.76-4.556 1.397-4.556 1.91V43z"/>
        <path fill="url(#prefix__h)" fill-rule="nonzero" d="M24.885 77h-1.113L22 75.645c.447-2.055 2.124-3.456 5.03-4.202 4.36-1.12 16.42-3.029 16.902-3.029.482 0 6.003-1.41 6.003-2.352V64L53 66.72c-.268.718-.93 1.428-1.982 2.13-1.58 1.054-5.602 2.423-10.672 3.244-3.38.548-7.19 1.095-11.426 1.64-2.69.76-4.035 1.397-4.035 1.91V77z"/>
        <path fill="url(#prefix__i)" fill-rule="nonzero" d="M25.792 86h-1.077L23 84.645c.433-2.055 2.055-3.456 4.868-4.202 4.22-1.12 15.89-3.029 16.356-3.029.467 0 5.81-1.41 5.81-2.352V73L53 75.72c-.26.718-.9 1.428-1.918 2.13-1.53 1.054-5.42 2.423-10.328 3.244-3.271.548-6.957 1.095-11.057 1.64-2.603.76-3.905 1.397-3.905 1.91V86z"/>
        <path fill="url(#prefix__j)" fill-rule="nonzero" d="M25.699 95h-1.041L23 93.645c.418-2.055 1.987-3.456 4.706-4.202 4.078-1.12 15.36-3.029 15.811-3.029.451 0 5.616-1.41 5.616-2.352V82L52 84.72c-.251.718-.87 1.428-1.855 2.13-1.478 1.054-5.24 2.423-9.983 3.244-3.162.548-6.725 1.095-10.688 1.64-2.517.76-3.775 1.397-3.775 1.91V95z"/>
        <path fill="url(#prefix__k)" fill-rule="nonzero" d="M28.326 105h-.897L26 103.54c.36-2.212 1.713-3.72 4.057-4.525 3.516-1.206 13.241-3.261 13.63-3.261.389 0 4.841-1.518 4.841-2.534V91L51 93.93c-.216.773-.75 1.538-1.599 2.294-1.274 1.135-4.517 2.608-8.606 3.493-2.726.59-5.798 1.178-9.214 1.766-2.17.818-3.255 1.504-3.255 2.058V105z"/>
        <path fill="url(#prefix__l)" fill-rule="nonzero" d="M30.768 112h-.682L29 110.958c.274-1.581 1.302-2.659 3.083-3.233 2.672-.861 10.064-2.33 10.36-2.33.295 0 3.678-1.084 3.678-1.81V102L48 104.093c-.164.552-.57 1.098-1.215 1.638-.968.81-3.433 1.863-6.54 2.495-2.073.422-4.407.842-7.004 1.262-1.648.584-2.473 1.074-2.473 1.47V112z"/>
        <path fill="url(#prefix__m)" fill-rule="nonzero" d="M19.065 0L13 8 61 8 54.323 0z"/>
        <path fill="url(#prefix__n)" fill-rule="nonzero" d="M61 8c-2.226 1.235-3.879 4.838-4.958 10.81-1.08 5.971-1.08 11.368 0 16.19-6.697-2.677-13.044-4.114-19.042-4.312-5.998-.198-12.074 1.24-18.229 4.312.89-6.825.89-12.222 0-16.19C17.883 14.84 15.96 11.238 13 8h48z"/>
        <path d="M0 0H74V115H0z"/>
    </g>
</svg>
