<svg xmlns="http://www.w3.org/2000/svg" width="74" height="116" viewBox="0 0 74 116">
    <defs>
        <linearGradient id="prefix__b" x1="97.269%" x2="9.814%" y1="50%" y2="50%">
            <stop offset="0%" stop-color="#E5E5E5"/>
            <stop offset="24.037%" stop-color="#40C4FF"/>
            <stop offset="48.158%" stop-color="#E9FBFF"/>
            <stop offset="63.756%" stop-color="#64F3FF"/>
            <stop offset="91.066%" stop-color="#0277BD"/>
            <stop offset="100%" stop-color="#19BFCF"/>
        </linearGradient>
        <linearGradient id="prefix__c" x1="97.269%" x2="-13.883%" y1="50%" y2="50%">
            <stop offset="0%" stop-color="#44C0CB"/>
            <stop offset="9.256%" stop-color="#40C4FF"/>
            <stop offset="32.91%" stop-color="#E9FBFF"/>
            <stop offset="56.334%" stop-color="#64F3FF"/>
            <stop offset="86.579%" stop-color="#219ED2"/>
            <stop offset="100%" stop-color="#47BAFF"/>
        </linearGradient>
        <linearGradient id="prefix__d" x1="50%" x2="50%" y1="83.875%" y2="17.489%">
            <stop offset="0%" stop-color="#00AAC7"/>
            <stop offset="36.053%" stop-color="#FFF"/>
            <stop offset="47.379%" stop-color="#2ADBE3"/>
            <stop offset="64.498%" stop-color="#0277BD"/>
            <stop offset="100%" stop-color="#40C4FF"/>
        </linearGradient>
        <linearGradient id="prefix__e" x1="50%" x2="50%" y1="83.875%" y2="17.489%">
            <stop offset="0%" stop-color="#00AAC7"/>
            <stop offset="36.053%" stop-color="#FFF"/>
            <stop offset="47.379%" stop-color="#2ADBE3"/>
            <stop offset="64.498%" stop-color="#0277BD"/>
            <stop offset="100%" stop-color="#40C4FF"/>
        </linearGradient>
        <linearGradient id="prefix__f" x1="50%" x2="50%" y1="83.875%" y2="17.489%">
            <stop offset="0%" stop-color="#00AAC7"/>
            <stop offset="36.053%" stop-color="#FFF"/>
            <stop offset="47.379%" stop-color="#2ADBE3"/>
            <stop offset="64.498%" stop-color="#0277BD"/>
            <stop offset="100%" stop-color="#40C4FF"/>
        </linearGradient>
        <linearGradient id="prefix__g" x1="50%" x2="50%" y1="83.875%" y2="17.489%">
            <stop offset="0%" stop-color="#00AAC7"/>
            <stop offset="36.053%" stop-color="#FFF"/>
            <stop offset="47.379%" stop-color="#2ADBE3"/>
            <stop offset="64.498%" stop-color="#0277BD"/>
            <stop offset="100%" stop-color="#40C4FF"/>
        </linearGradient>
        <linearGradient id="prefix__h" x1="50%" x2="50%" y1="83.875%" y2="17.489%">
            <stop offset="0%" stop-color="#00AAC7"/>
            <stop offset="36.053%" stop-color="#FFF"/>
            <stop offset="47.379%" stop-color="#2ADBE3"/>
            <stop offset="64.498%" stop-color="#0277BD"/>
            <stop offset="100%" stop-color="#40C4FF"/>
        </linearGradient>
        <linearGradient id="prefix__i" x1="50%" x2="50%" y1="83.875%" y2="17.489%">
            <stop offset="0%" stop-color="#00AAC7"/>
            <stop offset="36.053%" stop-color="#FFF"/>
            <stop offset="47.379%" stop-color="#2ADBE3"/>
            <stop offset="64.498%" stop-color="#0277BD"/>
            <stop offset="100%" stop-color="#40C4FF"/>
        </linearGradient>
        <linearGradient id="prefix__j" x1="50%" x2="50%" y1="83.875%" y2="17.489%">
            <stop offset="0%" stop-color="#00AAC7"/>
            <stop offset="36.053%" stop-color="#FFF"/>
            <stop offset="47.379%" stop-color="#2ADBE3"/>
            <stop offset="64.498%" stop-color="#0277BD"/>
            <stop offset="100%" stop-color="#40C4FF"/>
        </linearGradient>
        <linearGradient id="prefix__k" x1="50%" x2="50%" y1="83.875%" y2="17.489%">
            <stop offset="0%" stop-color="#00AAC7"/>
            <stop offset="36.053%" stop-color="#FFF"/>
            <stop offset="47.379%" stop-color="#2ADBE3"/>
            <stop offset="64.498%" stop-color="#0277BD"/>
            <stop offset="100%" stop-color="#40C4FF"/>
        </linearGradient>
        <linearGradient id="prefix__l" x1="50%" x2="50%" y1="83.875%" y2="17.489%">
            <stop offset="0%" stop-color="#00AAC7"/>
            <stop offset="36.053%" stop-color="#FFF"/>
            <stop offset="47.379%" stop-color="#2ADBE3"/>
            <stop offset="64.498%" stop-color="#0277BD"/>
            <stop offset="100%" stop-color="#40C4FF"/>
        </linearGradient>
        <linearGradient id="prefix__m" x1="50%" x2="50%" y1="100%" y2="0%">
            <stop offset="0%" stop-color="#0277BD"/>
            <stop offset="90.68%" stop-color="#FFF"/>
            <stop offset="84.267%" stop-color="#40ECFF"/>
        </linearGradient>
        <linearGradient id="prefix__n" x1="109.878%" x2="11.195%" y1="50%" y2="50%">
            <stop offset="0%" stop-color="#0277BD"/>
            <stop offset="34.141%" stop-color="#40C4FF"/>
            <stop offset="42.929%" stop-color="#40FEFF"/>
            <stop offset="56.266%" stop-color="#DDFEFF"/>
            <stop offset="68.11%" stop-color="#40F3FF"/>
            <stop offset="89.902%" stop-color="#0277BD"/>
            <stop offset="100%" stop-color="#23D1CE"/>
        </linearGradient>
        <filter id="prefix__a" width="143.2%" height="127.6%" x="-21.6%" y="-13.8%" filterUnits="objectBoundingBox">
            <feOffset dy="4" in="SourceAlpha" result="shadowOffsetOuter1"/>
            <feGaussianBlur in="shadowOffsetOuter1" result="shadowBlurOuter1" stdDeviation="2"/>
            <feColorMatrix in="shadowBlurOuter1" result="shadowMatrixOuter1" values="0 0 0 0 0 0 0 0 0 0 0 0 0 0 0 0 0 0 0.5 0"/>
            <feMerge>
                <feMergeNode in="shadowMatrixOuter1"/>
                <feMergeNode in="SourceGraphic"/>
            </feMerge>
        </filter>
    </defs>
    <g fill="none" fill-rule="evenodd" filter="url(#prefix__a)">
        <path fill="url(#prefix__b)" fill-rule="nonzero" d="M21 4l4.454 68.608C29.292 82.203 30.768 86 30.768 86h13.473l4.736-13.392L54 4H21z"/>
        <path fill="url(#prefix__c)" fill-rule="nonzero" d="M31 86l1.62 1.653 2.094.347h5.764l1.695-.347L44 86H31z"/>
        <path fill="url(#prefix__d)" fill-rule="nonzero" d="M24.978 53h-1.149L22 51.958c.461-1.581 2.192-2.659 5.193-3.233 4.5-.861 16.949-2.33 17.446-2.33.498 0 6.197-1.084 6.197-1.81V43L54 45.093c-.277.552-.96 1.098-2.046 1.638-1.631.81-5.782 1.863-11.016 2.495-3.49.422-7.421.842-11.795 1.262-2.777.584-4.165 1.074-4.165 1.47V53z"/>
        <path fill="url(#prefix__e)" fill-rule="nonzero" d="M24.07 47h-1.183L21 45.958c.476-1.581 2.26-2.659 5.355-3.233 4.641-.861 17.479-2.33 17.992-2.33.513 0 6.39-1.084 6.39-1.81V37L54 39.093c-.286.552-.99 1.098-2.11 1.638-1.682.81-5.963 1.863-11.36 2.495-3.6.422-7.653.842-12.163 1.262-2.864.584-4.296 1.074-4.296 1.47V47z"/>
        <path fill="url(#prefix__f)" fill-rule="nonzero" d="M24.164 40h-1.22L21 38.958c.49-1.581 2.33-2.659 5.517-3.233 4.782-.861 18.009-2.33 18.537-2.33.53 0 6.584-1.084 6.584-1.81V30L55 32.093c-.294.552-1.02 1.098-2.174 1.638-1.733.81-6.143 1.863-11.705 2.495-3.707.422-7.884.842-12.531 1.262-2.95.584-4.426 1.074-4.426 1.47V40z"/>
        <path fill="url(#prefix__g)" fill-rule="nonzero" d="M23.257 33h-1.256L20 31.958c.505-1.581 2.398-2.659 5.68-3.233 4.922-.861 18.537-2.33 19.082-2.33.544 0 6.777-1.084 6.777-1.81V23L55 25.093c-.303.552-1.049 1.098-2.238 1.638-1.784.81-6.324 1.863-12.049 2.495-3.817.422-8.117.842-12.9 1.262-3.037.584-4.556 1.074-4.556 1.47V33z"/>
        <path fill="url(#prefix__h)" fill-rule="nonzero" d="M24.885 59h-1.113L22 57.958c.447-1.581 2.124-2.659 5.03-3.233 4.36-.861 16.42-2.33 16.902-2.33.482 0 6.003-1.084 6.003-1.81V49L53 51.093c-.268.552-.93 1.098-1.982 1.638-1.58.81-5.602 1.863-10.672 2.495-3.38.422-7.19.842-11.426 1.262-2.69.584-4.035 1.074-4.035 1.47V59z"/>
        <path fill="url(#prefix__i)" fill-rule="nonzero" d="M25.792 66h-1.077L23 64.958c.433-1.581 2.055-2.659 4.868-3.233 4.22-.861 15.89-2.33 16.356-2.33.467 0 5.81-1.084 5.81-1.81V56L53 58.093c-.26.552-.9 1.098-1.918 1.638-1.53.81-5.42 1.863-10.328 2.495-3.271.422-6.957.842-11.057 1.262-2.603.584-3.905 1.074-3.905 1.47V66z"/>
        <path fill="url(#prefix__j)" fill-rule="nonzero" d="M25.699 73h-1.041L23 71.958c.418-1.581 1.987-2.659 4.706-3.233 4.078-.861 15.36-2.33 15.811-2.33.451 0 5.616-1.084 5.616-1.81V63L52 65.093c-.251.552-.87 1.098-1.855 1.638-1.478.81-5.24 1.863-9.983 2.495-3.162.422-6.725.842-10.688 1.262-2.517.584-3.775 1.074-3.775 1.47V73z"/>
        <path fill="url(#prefix__k)" fill-rule="nonzero" d="M28.326 80h-.897L26 78.958c.36-1.581 1.713-2.659 4.057-3.233 3.516-.861 13.241-2.33 13.63-2.33.389 0 4.841-1.084 4.841-1.81V70L51 72.093c-.216.552-.75 1.098-1.599 1.638-1.274.81-4.517 1.863-8.606 2.495-2.726.422-5.798.842-9.214 1.262-2.17.584-3.255 1.074-3.255 1.47V80z"/>
        <path fill="url(#prefix__l)" fill-rule="nonzero" d="M30.768 86h-.682L29 85.166c.274-1.264 1.302-2.126 3.083-2.586 2.672-.69 10.064-1.864 10.36-1.864.295 0 3.678-.867 3.678-1.447V78L48 79.674c-.164.442-.57.879-1.215 1.311-.968.649-3.433 1.49-6.54 1.996-2.073.337-4.407.674-7.004 1.01-1.648.467-2.473.859-2.473 1.175V86z"/>
        <path fill="url(#prefix__m)" fill-rule="nonzero" d="M19.065 0L13 6 61 6 54.323 0z"/>
        <path fill="url(#prefix__n)" fill-rule="nonzero" d="M61 6c-2.226.96-3.879 3.763-4.958 8.407-1.08 4.645-1.08 8.842 0 12.593-6.697-2.082-13.044-3.2-19.042-3.354-5.998-.154-12.074.964-18.229 3.354.89-5.309.89-9.506 0-12.593C17.883 11.321 15.96 8.52 13 6h48z"/>
        <path d="M0 0H74V115H0z"/>
    </g>
</svg>
