<svg xmlns="http://www.w3.org/2000/svg" width="120" height="98" viewBox="0 0 120 98">
    <g fill="none" fill-rule="evenodd">
        <path d="M0 0H120V98H0z"/>
        <path fill="#000" fill-opacity=".36" fill-rule="nonzero" d="M48 1l12 12h48c6.492 0 11.823 5.224 11.996 11.676L120 25v60c0 6.492-5.224 11.823-11.676 11.996L108 97H12C5.508 97 .177 91.776.004 85.324L0 85l.06-72c0-6.492 5.166-11.823 11.616-11.996L12 1h36zm-.465 1.143H12c-5.861 0-10.64 4.71-10.804 10.55L1.192 13 1.132 85c0 5.864 4.724 10.688 10.56 10.853l.308.004h96c5.874 0 10.699-4.723 10.864-10.55l.004-.307V25c0-5.864-4.724-10.688-10.56-10.853l-.308-.004H59.534l-12-12zM67.314 35.5l4.186 4.347L57.902 54 71.5 68.153 67.314 72.5 49.5 54l17.814-18.5z"/>
    </g>
</svg>
