<svg xmlns="http://www.w3.org/2000/svg" width="24" height="24" viewBox="0 0 24 24">
    <g fill="none" fill-rule="evenodd">
        <g>
            <g>
                <path fill="#FFF" stroke="#000" stroke-opacity=".54" d="M2 11.5c.688 0 1.313.28 1.766.734.453.453.734 1.079.734 1.766 0 .688-.28 1.313-.734 1.766-.453.453-1.079.734-1.766.734-.688 0-1.313-.28-1.766-.734C-.22 15.313-.5 14.687-.5 14c0-.688.28-1.313.734-1.766C.687 11.78 1.313 11.5 2 11.5h0zm0-6c.688 0 1.313.28 1.766.734C4.22 6.687 4.5 7.313 4.5 8c0 .688-.28 1.313-.734 1.766-.453.453-1.079.734-1.766.734-.688 0-1.313-.28-1.766-.734C-.22 9.313-.5 8.687-.5 8c0-.688.28-1.313.734-1.766C.687 5.78 1.313 5.5 2 5.5zm0-6c.688 0 1.313.28 1.766.734C4.22.687 4.5 1.313 4.5 2c0 .688-.28 1.313-.734 1.766C3.313 4.22 2.687 4.5 2 4.5c-.688 0-1.313-.28-1.766-.734C-.22 3.313-.5 2.687-.5 2c0-.688.28-1.313.734-1.766C.687-.22 1.313-.5 2-.5z" transform="translate(-942 -1150) translate(942 1150) translate(10 4)"/>
                <g>
                    <path d="M0 0H24V24H0z" transform="translate(-942 -1150) translate(942 1150)"/>
                </g>
            </g>
        </g>
    </g>
</svg>
