<svg width="120" height="98" viewBox="0 0 120 98" xmlns="http://www.w3.org/2000/svg">
    <g fill="none" fill-rule="evenodd">
        <path d="M0 0h120v98H0z"/>
        <path d="M120 87.302V11c0-5.523-4.477-10-10-10H9.625C4.331 1 .048 5.32.048 10.6L0 87.4C0 92.68 4.283 97 9.577 97h100.798H77h33.302c5.356 0 9.698-4.342 9.698-9.698z" fill-opacity=".38" fill="#000"/>
        <path d="M62.75 17 71 25.4v16.8c0 1.54-1.237 2.8-2.75 2.8h-16.5C50.237 45 49 43.74 49 42.2V19.8c0-1.54 1.237-2.8 2.75-2.8h11zm-7.531 11H53v5.688h1.172v-2.004h1.027c.675 0 1.203-.161 1.584-.483.382-.321.572-.76.572-1.318 0-.367-.087-.695-.261-.983a1.727 1.727 0 0 0-.748-.666A2.567 2.567 0 0 0 55.219 28zm4.391 0h-1.75v5.688h1.762a2.678 2.678 0 0 0 1.34-.344c.396-.227.702-.546.92-.957.217-.412.326-.882.326-1.41v-.262c0-.529-.11-1-.332-1.416a2.356 2.356 0 0 0-.924-.961A2.658 2.658 0 0 0 59.61 28zm6.853 0h-3.704v5.688h1.172v-2.325h2.25v-.945h-2.25v-1.469h2.532V28zm-6.853.95c.461 0 .811.148 1.05.446.24.299.36.737.36 1.315v.3c-.005.558-.129.986-.37 1.286-.243.3-.593.45-1.052.45h-.566v-3.798zm-4.364 0c.29.004.516.093.68.265.164.172.246.397.246.676 0 .27-.082.479-.244.625-.163.145-.4.218-.71.218h-1.046V28.95z" fill="#FFF"/>
    </g>
</svg>
