<svg xmlns="http://www.w3.org/2000/svg" width="120" height="98" viewBox="0 0 120 98">
    <g fill="none" fill-rule="evenodd">
        <path d="M0 0H120V98H0z"/>
        <path fill="#000" fill-opacity=".38" d="M120 87.302V11c0-5.523-4.477-10-10-10H9.625C4.331 1 .048 5.32.048 10.6L0 87.4C0 92.68 4.283 97 9.577 97h100.798H77h33.302c5.356 0 9.698-4.342 9.698-9.698z"/>
        <path fill="#FFF" d="M61.75 17L70 25.4v16.8c0 1.54-1.237 2.8-2.75 2.8h-16.5C49.237 45 48 43.74 48 42.2V19.8c0-1.54 1.237-2.8 2.75-2.8h11zm-8.023 11.313h-2.22V34h1.173v-2.004h1.027c.675 0 1.203-.16 1.584-.482.382-.322.572-.761.572-1.319 0-.367-.087-.694-.261-.982-.175-.288-.424-.51-.748-.666-.27-.13-.577-.206-.918-.228l-.21-.006zm5.16 0h-2.219V34h1.172v-2.004h1.027c.675 0 1.203-.16 1.584-.482.382-.322.572-.761.572-1.319 0-.367-.087-.694-.261-.982-.175-.288-.424-.51-.748-.666-.27-.13-.576-.206-.918-.228l-.21-.006zm7.222 0h-4.632v.949h1.718V34h1.172v-4.738h1.742v-.95zm-12.355.949c.289.005.516.093.68.265.164.172.246.397.246.676 0 .271-.082.48-.244.625-.163.146-.4.219-.71.219H52.68v-1.785h1.074zm5.16 0c.29.005.516.093.68.265.164.172.246.397.246.676 0 .271-.082.48-.244.625-.163.146-.4.219-.71.219H57.84v-1.785h1.074z"/>
    </g>
</svg>
