<svg xmlns="http://www.w3.org/2000/svg" width="120" height="98" viewBox="0 0 120 98">
    <g fill="none" fill-rule="evenodd">
        <path d="M0 0H120V98H0z"/>
        <path fill="#000" fill-opacity=".38" d="M120 87.302V11c0-5.523-4.477-10-10-10H9.625C4.331 1 .048 5.32.048 10.6L0 87.4C0 92.68 4.283 97 9.577 97h100.798H77h33.302c5.356 0 9.698-4.342 9.698-9.698z"/>
        <path fill="#FFF" d="M61.75 17L70 25.4v16.8c0 1.54-1.237 2.8-2.75 2.8h-16.5C49.237 45 48 43.74 48 42.2V19.8c0-1.54 1.237-2.8 2.75-2.8h11zm-7.477 11c-.403 0-.767.068-1.091.203-.325.136-.573.324-.746.565-.174.24-.26.515-.26.822 0 .591.323 1.061.969 1.41.237.128.558.257.964.389.407.131.688.256.844.375.156.118.234.288.234.51 0 .203-.078.36-.234.474-.156.113-.374.17-.652.17-.7 0-1.074-.273-1.12-.82l-.005-.121H52c0 .367.094.69.283.968.189.279.463.498.822.659.36.16.758.24 1.196.24.63 0 1.131-.14 1.504-.42.372-.28.558-.666.558-1.158 0-.443-.152-.813-.457-1.11-.304-.297-.79-.545-1.457-.746-.362-.11-.636-.226-.822-.351-.186-.125-.28-.28-.28-.465 0-.198.08-.358.239-.479.159-.12.381-.181.668-.181.297 0 .527.072.691.216.137.12.217.282.24.482l.006.126h1.172c0-.341-.088-.646-.263-.914-.176-.268-.423-.476-.74-.623-.318-.147-.68-.221-1.087-.221zm7.164.078h-4.632v.95h1.718v4.738h1.172v-4.739h1.742v-.949zm1.84 0h-1.172v5.688h3.66v-.942h-2.488v-4.746z"/>
    </g>
</svg>
