<svg xmlns="http://www.w3.org/2000/svg" width="120" height="98" viewBox="0 0 120 98">
    <g fill="none" fill-rule="evenodd">
        <path d="M0 0H120V98H0z"/>
        <path fill="#000" fill-opacity=".38" d="M120 87.302V11c0-5.523-4.477-10-10-10H9.625C4.331 1 .048 5.32.048 10.6L0 87.4C0 92.68 4.283 97 9.577 97h100.798H77h33.302c5.356 0 9.698-4.342 9.698-9.698z"/>
        <path fill="#FFF" d="M62.75 17L71 25.4v16.8c0 1.54-1.237 2.8-2.75 2.8h-16.5C50.237 45 49 43.74 49 42.2V19.8c0-1.54 1.237-2.8 2.75-2.8h11zm-2.938 16.277c-.277 0-.504.085-.682.255-.178.17-.267.386-.267.648 0 .258.087.47.261.638.174.168.403.252.688.252.286 0 .515-.084.689-.252.174-.168.26-.38.26-.638 0-.262-.088-.478-.266-.648-.178-.17-.405-.255-.682-.255zm.118-6.925c-.82 0-1.468.21-1.943.632-.427.38-.665.891-.714 1.533l-.01.22h1.7c.008-.313.099-.558.272-.736.174-.178.406-.267.695-.267.61 0 .914.33.914.99 0 .22-.059.427-.176.625-.117.197-.353.453-.706.767-.354.315-.597.634-.73.958-.113.278-.178.638-.195 1.08l-.004.227h1.5l.024-.358c.036-.328.167-.62.39-.876l.12-.126.474-.45c.371-.36.63-.687.78-.982.148-.295.222-.609.222-.94 0-.731-.229-1.296-.686-1.697-.457-.4-1.1-.6-1.927-.6z"/>
    </g>
</svg>
