<svg xmlns="http://www.w3.org/2000/svg" width="120" height="98" viewBox="0 0 120 98">
    <g fill="none" fill-rule="evenodd">
        <path d="M0 0H120V98H0z"/>
        <path fill="#000" fill-opacity=".38" d="M120 87.302V11c0-5.523-4.477-10-10-10H9.625C4.331 1 .048 5.32.048 10.6L0 87.4C0 92.68 4.283 97 9.577 97h100.798H77h33.302c5.356 0 9.698-4.342 9.698-9.698z"/>
        <path fill="#FFF" d="M65.75 17L74 25.4v16.8c0 1.54-1.237 2.8-2.75 2.8h-16.5C53.237 45 52 43.74 52 42.2V19.8c0-1.54 1.237-2.8 2.75-2.8h11zm-4.48 11h-4.266v.95h2.809L57 33v.688h4.332v-.942h-2.867l2.805-4.074V28zm2.046 0h-1.171v5.688h1.171V28zm3.305 0h-2.219v5.688h1.172v-2.004h1.028c.674 0 1.202-.161 1.584-.483.381-.321.572-.76.572-1.318 0-.367-.087-.695-.262-.983-.174-.287-.424-.51-.748-.666-.27-.13-.576-.206-.918-.227L66.621 28zm.027.95c.29.004.516.093.68.265.164.172.246.397.246.676 0 .27-.081.479-.244.625-.163.145-.399.218-.709.218h-1.047V28.95h1.074z"/>
    </g>
</svg>
